<svg xmlns="http://www.w3.org/2000/svg" viewBox="-0.5 -0.5 24 24" height="24" width="24"><title>interface-essential-notification-alert</title><g><path d="M21.9 18.616H23v2.192h-1.1Z" fill="currentColor" stroke-width="1"></path><path d="M21.9 2.192H23V4.384h-1.1Z" fill="currentColor" stroke-width="1"></path><path d="M20.808 20.808h1.093v1.1h-1.093Z" fill="currentColor" stroke-width="1"></path><path d="M20.808 1.093h1.093v1.1h-1.093Z" fill="currentColor" stroke-width="1"></path><path d="M19.715 18.616h1.093v1.1h-1.093Z" fill="currentColor" stroke-width="1"></path><path d="M19.715 14.238h1.093v2.192h-1.093Z" fill="currentColor" stroke-width="1"></path><path d="M19.715 3.285h1.093V4.384h-1.093Z" fill="currentColor" stroke-width="1"></path><path d="M18.616 0h2.192v1.093H18.616Z" fill="currentColor" stroke-width="1"></path><path d="M18.616 21.907h2.192V23H18.616Z" fill="currentColor" stroke-width="1"></path><path d="M18.616 19.715h1.1v1.093H18.616Z" fill="currentColor" stroke-width="1"></path><path d="M18.616 16.431h1.1v1.093H18.616Z" fill="currentColor" stroke-width="1"></path><path d="M18.616 13.146h1.1v1.093H18.616Z" fill="currentColor" stroke-width="1"></path><path d="M18.616 2.192h1.1v1.093H18.616Z" fill="currentColor" stroke-width="1"></path><path d="M16.423 17.523h2.192v1.093h-2.192Z" fill="currentColor" stroke-width="1"></path><path d="M17.523 7.669h1.093v5.477h-1.093Z" fill="currentColor" stroke-width="1"></path><path d="M16.423 15.331h1.1v1.1h-1.1Z" fill="currentColor" stroke-width="1"></path><path d="M16.423 5.477h1.1v2.192h-1.1Z" fill="currentColor" stroke-width="1"></path><path d="m6.569 15.331 2.192 0 0 1.1 1.093 0 0 1.093 3.285 0 0 -1.093 1.1 0 0 -1.1 2.185 0 0 -1.093 -9.854 0 0 1.093z" fill="currentColor" stroke-width="1"></path><path d="M15.331 4.384h1.093v1.093h-1.093Z" fill="currentColor" stroke-width="1"></path><path d="M6.569 18.616h9.854v1.1H6.569Z" fill="currentColor" stroke-width="1"></path><path d="M13.139 3.285h2.192V4.384h-2.192Z" fill="currentColor" stroke-width="1"></path><path d="M9.854 2.192h3.285v1.093h-3.285Z" fill="currentColor" stroke-width="1"></path><path d="M7.662 3.285h2.192V4.384h-2.192Z" fill="currentColor" stroke-width="1"></path><path d="M6.569 4.384h1.093v1.093H6.569Z" fill="currentColor" stroke-width="1"></path><path d="M4.377 17.523h2.192v1.093H4.377Z" fill="currentColor" stroke-width="1"></path><path d="M5.477 15.331h1.093v1.1H5.477Z" fill="currentColor" stroke-width="1"></path><path d="M5.477 5.477h1.093v2.192H5.477Z" fill="currentColor" stroke-width="1"></path><path d="M4.377 7.669h1.1v5.477H4.377Z" fill="currentColor" stroke-width="1"></path><path d="M3.285 19.715h1.093v1.093H3.285Z" fill="currentColor" stroke-width="1"></path><path d="M3.285 16.431h1.093v1.093H3.285Z" fill="currentColor" stroke-width="1"></path><path d="M3.285 13.146h1.093v1.093H3.285Z" fill="currentColor" stroke-width="1"></path><path d="M3.285 2.192h1.093v1.093H3.285Z" fill="currentColor" stroke-width="1"></path><path d="M2.192 0h2.185v1.093H2.192Z" fill="currentColor" stroke-width="1"></path><path d="M2.192 21.907h2.185V23H2.192Z" fill="currentColor" stroke-width="1"></path><path d="M2.192 18.616h1.093v1.1H2.192Z" fill="currentColor" stroke-width="1"></path><path d="M2.192 14.238h1.093v2.192H2.192Z" fill="currentColor" stroke-width="1"></path><path d="M2.192 3.285h1.093V4.384H2.192Z" fill="currentColor" stroke-width="1"></path><path d="M1.093 20.808h1.1v1.1H1.093Z" fill="currentColor" stroke-width="1"></path><path d="M1.093 1.093h1.1v1.1H1.093Z" fill="currentColor" stroke-width="1"></path><path d="M0 18.616h1.093v2.192H0Z" fill="currentColor" stroke-width="1"></path><path d="M0 2.192h1.093V4.384H0Z" fill="currentColor" stroke-width="1"></path></g></svg>