<svg xmlns="http://www.w3.org/2000/svg" viewBox="0 0 24 24" height="24" width="24"><title>coding-apps-websites-plugin</title><g><path d="m22.86 4.574999999999999 -1.1400000000000001 0 0 1.1400000000000001 -1.1475 0 0 1.1475 1.1475 0 0 1.1400000000000001 1.1400000000000001 0 0 -1.1400000000000001 1.1400000000000001 0 0 -1.1475 -1.1400000000000001 0 0 -1.1400000000000001z" fill="currentColor" stroke-width="0.75"></path><path d="M22.86 13.7175h-1.1400000000000001v-1.1400000000000001h-2.2874999999999996v-4.574999999999999H11.43v4.574999999999999H3.4275v1.1400000000000001H2.2874999999999996v1.1400000000000001H1.1475v1.1475H0v1.1400000000000001h3.4275V24h17.145v-6.855H24v-2.2874999999999996h-1.1400000000000001Zm-10.290000000000001 -4.574999999999999h5.715v3.435h-5.715Zm1.1475 13.7175H4.574999999999999v-5.715h7.995v-1.1400000000000001h1.1475Zm5.715 0h-4.574999999999999V13.7175h4.574999999999999Z" fill="currentColor" stroke-width="0.75"></path><path d="M14.857499999999998 2.2874999999999996h1.1475v1.1475h-1.1475Z" fill="currentColor" stroke-width="0.75"></path><path d="m12.57 0 0 5.715 5.715 0 0 -1.1400000000000001 -1.1400000000000001 0 0 -1.1400000000000001 -1.1400000000000001 0 0 1.1400000000000001 -2.2874999999999996 0 0 -2.2874999999999996 1.1400000000000001 0 0 -1.1400000000000001 -1.1400000000000001 0 0 -1.1475 -1.1475 0z" fill="currentColor" stroke-width="0.75"></path><path d="M9.1425 5.715h1.1475v3.4275h-1.1475Z" fill="currentColor" stroke-width="0.75"></path><path d="M8.0025 9.1425h1.1400000000000001v1.1475h-1.1400000000000001Z" fill="currentColor" stroke-width="0.75"></path><path d="M8.0025 4.574999999999999h1.1400000000000001v1.1400000000000001h-1.1400000000000001Z" fill="currentColor" stroke-width="0.75"></path><path d="M4.574999999999999 10.290000000000001h3.4275v1.1400000000000001H4.574999999999999Z" fill="currentColor" stroke-width="0.75"></path><path d="M4.574999999999999 3.435h3.4275V4.574999999999999H4.574999999999999Z" fill="currentColor" stroke-width="0.75"></path><path d="M3.4275 9.1425H4.574999999999999v1.1475H3.4275Z" fill="currentColor" stroke-width="0.75"></path><path d="M3.4275 4.574999999999999H4.574999999999999v1.1400000000000001H3.4275Z" fill="currentColor" stroke-width="0.75"></path><path d="M2.2874999999999996 5.715h1.1400000000000001v3.4275H2.2874999999999996Z" fill="currentColor" stroke-width="0.75"></path><path d="M1.1475 1.1475h1.1400000000000001v1.1400000000000001H1.1475Z" fill="currentColor" stroke-width="0.75"></path></g></svg>