<?xml version="1.0" encoding="utf-8"?>
<!-- Generator: Adobe Illustrator 24.1.2, SVG Export Plug-In . SVG Version: 6.00 Build 0)  -->
<svg version="1.1" id="Capa_1" xmlns="http://www.w3.org/2000/svg" xmlns:xlink="http://www.w3.org/1999/xlink" x="0px" y="0px"
	 viewBox="0 0 595.28 841.89" style="enable-background:new 0 0 595.28 841.89;" xml:space="preserve">
<g>
	<path d="M325.54,264.41c6.15-0.55,12.3-1.1,19.29-1.73c0,13.28,0,25.54,0,38.64c6.69,0,12.63,0,18.98,0c0,32.2,0,63.56,0,95.33
		c-38,0-75.71,0-113.95,0c0-31.38,0-62.75,0-94.82c5.82,0,11.79,0,18.48,0c0-12.95,0-25.22,0-38.05c6.44,0,12.17,0,18.94,0
		c0,12.12,0,24.56,0,37.36c13.3,0,25.58,0,38.37,0c0-12.34,0-24.6,0-36.86L325.54,264.41z M344.89,377.8c0-19.22,0-37.95,0-56.86
		c-2.04-0.14-3.53-0.3-5.03-0.35c-5.51-0.15-10.94,0.71-15.71-4.07c-1.46-1.47-6.51,0.34-9.81,1.11c-2.76,0.64-5.34,2.74-8.04,2.81
		c-12.32,0.31-24.66,0.14-37.39,0.14c0,19.38,0,38.12,0,57.21C294.29,377.8,319.2,377.8,344.89,377.8z"/>
	<path d="M325.64,264.27c-3.53-0.41-7.05-1.1-10.59-1.17c-8.85-0.17-17.7-0.06-26.93-0.06c0-6.55,0-12.34,0-18.57
		c12.38,0,24.63,0,37.45,0c0,6.64,0,13.27-0.02,19.92C325.54,264.41,325.64,264.27,325.64,264.27z"/>
</g>
</svg>
