<?xml version="1.0" encoding="utf-8"?>
<!-- Generator: Adobe Illustrator 24.1.2, SVG Export Plug-In . SVG Version: 6.00 Build 0)  -->
<svg version="1.1" id="Capa_1" xmlns="http://www.w3.org/2000/svg" xmlns:xlink="http://www.w3.org/1999/xlink" x="0px" y="0px"
	 viewBox="0 0 595.28 841.89" style="enable-background:new 0 0 595.28 841.89;" xml:space="preserve">
<style type="text/css">
	.st0{fill:#FFFFFF;}
</style>
<g>
	<path class="st0" d="M244.15,369.29c-5.18,0-10.36,0-15.67,0c0,10.13,0,20,0,29.94c5.07,0,9.73,0,14.97,0
		c0-2.54-0.04-4.79,0.01-7.03c0.17-7.68,0.38-15.37,0.55-23.07c9.96,0.06,19.92,0.11,29.88,0.17c0,9.91,0,19.82,0,30.45
		c-4.82,0-9.62,0-14.64,0c0,25.89,0,51.05,0,76.37c30.9,0,61.46,0,91.87,0c0-25.61,0-50.79,0-76.67c-20.56,0-40.78,0-61.58,0
		c0-10.59,0-20.49,0-30.94c-5.65,0.31-10.68,0.59-15.7,0.85c0-5.16,0-10.32,0-15.8c-9.98,0-19.81,0-30.41,0
		C243.68,359,243.92,364.14,244.15,369.29z"/>
	<path d="M273.82,369.38c5.03-0.28,10.07-0.56,15.72-0.87c0,10.45,0,20.35,0,30.94c20.8,0,41.02,0,61.58,0c0,25.87,0,51.05,0,76.67
		c-30.41,0-60.97,0-91.87,0c0-25.31,0-50.48,0-76.37c5.03,0,9.83,0,14.64,0c0-10.63,0-20.54,0.01-30.47
		C273.92,369.26,273.82,369.38,273.82,369.38z M274.47,460.68c0.94,0.29,1.43,0.57,1.92,0.57c18.75,0.04,37.51,0.01,56.26,0.14
		c3.3,0.02,3.66-1.66,3.64-4.28c-0.06-11.39-0.03-22.79-0.02-34.18c0-2.54,0-5.08,0-7.55c-21.15,0-41.37,0-61.8,0
		C274.47,430.66,274.47,445.51,274.47,460.68z"/>
	<path d="M244.04,369.15c-0.19,7.68-0.4,15.37-0.57,23.05c-0.05,2.24-0.01,4.48-0.01,7.03c-5.24,0-9.9,0-14.97,0
		c0-9.93,0-19.81,0-29.94c5.31,0,10.49,0,15.67,0L244.04,369.15z"/>
	<path d="M244.15,369.29c-0.24-5.15-0.48-10.29-0.73-15.73c10.61,0,20.44,0,30.41,0c0,5.48,0,10.64-0.01,15.81
		c-0.01,0.01,0.09-0.1,0.08-0.09c-9.97-0.04-19.93-0.09-29.88-0.14C244.04,369.15,244.15,369.29,244.15,369.29z"/>
	<path class="st0" d="M274.47,460.68c0-15.16,0-30.02,0-45.3c20.43,0,40.66,0,61.8,0c0,2.47,0,5.01,0,7.55
		c0,11.39-0.04,22.79,0.02,34.18c0.01,2.61-0.34,4.3-3.64,4.28c-18.75-0.13-37.51-0.09-56.26-0.14
		C275.9,461.25,275.41,460.97,274.47,460.68z"/>
</g>
</svg>
