<?xml version="1.0" encoding="utf-8"?>
<!-- Generator: Adobe Illustrator 24.1.2, SVG Export Plug-In . SVG Version: 6.00 Build 0)  -->
<svg version="1.1" id="Capa_1" xmlns="http://www.w3.org/2000/svg" xmlns:xlink="http://www.w3.org/1999/xlink" x="0px" y="0px"
	 viewBox="0 0 595.28 841.89" style="enable-background:new 0 0 595.28 841.89;" xml:space="preserve">
<style type="text/css">
	.st0{fill:#FFFFFF;}
	.st1{fill:#0808D3;}
</style>
<path class="st0" d="M320.68,482.48c-4.68,0-8.78,0-14.33,0c0-17.26,0-34.23,0-51.89c-18.04,0-34.62,0-52.38,0
	c0,17.13,0,33.76,0,51.61c-5.45,0.26-9.79,0.46-14.94,0.71c0-22.78,0-44.82,0-67.53c27.1,0,53.86,0,81.65,0
	C320.68,437.15,320.68,459.14,320.68,482.48z"/>
<path class="st0" d="M271.45,482.2c0-6.01,0-10.85,0-16.34c5.68,0,10.84,0,16.72,0c0,5.43,0,10.55,0,16.34
	C282.67,482.2,277.52,482.2,271.45,482.2z"/>
<path class="st1" d="M221.47,379.79c5.72-0.3,10.62-0.55,16.24-0.84c0.34-5.48,0.64-10.4,1.03-16.67c10.14,0,20.4,0,31.42,0
	c0.58-6.45,1.05-11.68,1.58-17.55c6.01,0,11.75,0,18.73,0c0.42,4.77,0.88,10.01,1.46,16.57c10.12,0,20.41,0,31.66,0
	c0.33,6.46,0.6,11.72,0.89,17.46c4.71,0.43,8.76,0.8,13.81,1.27c0.53,5.4,1.03,10.62,1.62,16.6c5.2,0.29,10.12,0.57,16,0.9
	c0,5.2,0,10.32,0,16.38c-5,0.42-9.9,0.82-16.13,1.34c0,26.92,0,54,0,81.92c-40.11,0-78.9,0-118.7,0c0-27.12,0-53.86,0-81.55
	c-6.11-0.53-11.33-0.99-17.34-1.51c0-5.3,0-10.48,0-16.45c5.15-0.32,10.07-0.62,16.12-0.99
	C220.34,391.6,220.84,386.38,221.47,379.79z M320.68,482.48c0-23.34,0-45.33,0-67.11c-27.79,0-54.55,0-81.65,0
	c0,22.71,0,44.75,0,67.53c5.15-0.24,9.49-0.45,14.94-0.71c0-17.85,0-34.48,0-51.61c17.76,0,34.34,0,52.38,0c0,17.66,0,34.63,0,51.89
	C311.9,482.48,316,482.48,320.68,482.48z M271.45,482.2c6.06,0,11.22,0,16.72,0c0-5.79,0-10.91,0-16.34c-5.88,0-11.04,0-16.72,0
	C271.45,471.35,271.45,476.19,271.45,482.2z"/>
</svg>
