<?xml version="1.0" encoding="utf-8"?>
<!-- Generator: Adobe Illustrator 24.1.2, SVG Export Plug-In . SVG Version: 6.00 Build 0)  -->
<svg version="1.1" id="Capa_1" xmlns="http://www.w3.org/2000/svg" xmlns:xlink="http://www.w3.org/1999/xlink" x="0px" y="0px"
	 viewBox="0 0 595.28 841.89" style="enable-background:new 0 0 595.28 841.89;" xml:space="preserve">
<style type="text/css">
	.st0{fill:#FFFFFF;}
</style>
<g>
	<path class="st0" d="M281.3,396.31l0.21,0.2c0-5.8,0-11.61,0-18.19c-12.55,0-23.96,0-35.64,0c0-6.31,0-11.82,0-18.24
		c14.65,0,28.85-0.06,43.04,0.05c3.24,0.03,6.49,0.65,9.75,0.97c0.33,5.55,0.66,11.09,1.04,17.47c29.93,0,59.29,0,89.37,0
		c0,30.03,0,59.2,0,88.43c6.08,0,11.41,0,17.07,0c0-35.52,0-70.59,0-105.97c-1.88-0.18-3.41-0.46-4.94-0.46
		c-32.47-0.03-64.94-0.05-97.41-0.01c-1.78,0-3.56,0.48-5.34,0.74c0-6.07,0-12.14,0-18.63c-23.37,0-46.65,0-70.94,0
		c0,12.05,0,23.72,0,35.97c-6.36,0-11.73,0-17.44,0c0,41.64,0,82.65,0,124c53.55,0,106.78,0,160.34,0
		c0.29-5.98,0.57-11.5,0.87-17.66c6.11,0,11.45,0,16.98,0c0-6.01,0-11.32,0-17.56c-5.92,0-11.45,0-17.68,0c0-24.22,0-47.52,0-71.09
		C340.32,396.31,310.81,396.31,281.3,396.31z"/>
	<path d="M298.64,361.11c-3.24-0.35-6.48-0.97-9.73-0.99c-14.2-0.11-28.4-0.05-43.04-0.05c0,6.42,0,11.93,0,18.24
		c11.68,0,23.09,0,35.64,0c0,6.58,0,12.39,0,18.19c-17.82,0-35.64,0-54,0c0,11.38,0.32,22.27-0.1,33.13
		c-0.34,8.68,2.32,17.74-2.67,26.01c-0.48,0.8-0.45,2.75,0.12,3.21c4.49,3.63,1.83,7.11,0.3,10.9c-3.18,7.84,1.98,15.53,10.19,15.53
		c36.57,0,73.15,0.01,109.72-0.01c2.42,0,4.83-0.2,7.49-0.32c0-23.95,0-47.24,0-71.42c-23.9,0-47.38,0-71.25,0
		c0-6.33,0-11.77,0-17.21c29.51,0,59.02,0,89.27,0c0,23.57,0,46.87,0,71.09c6.23,0,11.76,0,17.68,0c0,6.23,0,11.54,0,17.56
		c-5.53,0-10.86,0-16.98,0c-0.3,6.15-0.57,11.67-0.87,17.66c-53.55,0-106.78,0-160.34,0c0-41.35,0-82.36,0-124
		c5.71,0,11.08,0,17.44,0c0-12.25,0-23.92,0-35.97c24.29,0,47.58,0,70.94,0c0,6.5,0,12.56,0,18.63L298.64,361.11z"/>
	<path d="M298.45,361.28c1.78-0.26,3.56-0.74,5.34-0.74c32.47-0.04,64.94-0.02,97.41,0.01c1.53,0,3.06,0.28,4.94,0.46
		c0,35.39,0,70.45,0,105.97c-5.67,0-11,0-17.07,0c0-29.23,0-58.39,0-88.43c-30.08,0-59.44,0-89.37,0
		c-0.38-6.38-0.71-11.92-1.05-17.46C298.64,361.11,298.45,361.28,298.45,361.28z"/>
	<path class="st0" d="M281.3,396.31c0,5.44,0,10.88,0,17.21c23.87,0,47.34,0,71.25,0c0,24.19,0,47.47,0,71.42
		c-2.66,0.12-5.07,0.32-7.49,0.32c-36.57,0.02-73.15,0.01-109.72,0.01c-8.21,0-13.37-7.69-10.19-15.53c1.54-3.79,4.2-7.27-0.3-10.9
		c-0.57-0.46-0.6-2.41-0.12-3.21c4.99-8.27,2.33-17.32,2.67-26.01c0.43-10.86,0.1-21.75,0.1-33.13c18.36,0,36.17,0,54,0
		C281.5,396.51,281.3,396.31,281.3,396.31z"/>
</g>
</svg>
