<?xml version="1.0" encoding="utf-8"?>
<!-- Generator: Adobe Illustrator 24.1.2, SVG Export Plug-In . SVG Version: 6.00 Build 0)  -->
<svg version="1.1" id="Capa_1" xmlns="http://www.w3.org/2000/svg" xmlns:xlink="http://www.w3.org/1999/xlink" x="0px" y="0px"
	 viewBox="0 0 595.28 841.89" style="enable-background:new 0 0 595.28 841.89;" xml:space="preserve">
<style type="text/css">
	.st0{fill:#0808D3;}
</style>
<path class="st0" d="M291.32,320.54c6.7,0,12.01,0,18.9,0c0,19.26,0,38.16,0,57.8c6.64,0,11.71,0,18.09,0c0-19.03,0-37.5,0-57.08
	c6.87,0,12.46,0,19.94,0c0,18.65,0,37.5,0,57.08c6.95,0,12.04,0,18.53,0c0-18.95,0-37.4,0-57.39c6.91-0.38,12.54-0.69,19.39-1.07
	c0,26.31,0,51.96,0,79.42c-11.97,0-23.94,0-37.23,0c0,33.93,0,66.09,0,99.41c-6.97,0-12.56,0-19.94,0c0-32.17,0-64.75,0-98.6
	c-13.28,0-24.86,0-37.68,0C291.32,373.23,291.32,347.62,291.32,320.54z"/>
<path class="st0" d="M251.3,400.47c0,33.18,0,65.33,0,98.43c-6.89,0-12.49,0-19.79,0c0-32.68,0-65.23,0-98.55
	c-7.32-0.49-13.01-0.87-19.86-1.33c0-25.86,0-51.45,0-77.98c18.87,0,37.21,0,56.68,0c0,25.93,0,51.52,0,77.77
	C263,399.32,258.25,399.79,251.3,400.47z"/>
</svg>
