<svg xmlns="http://www.w3.org/2000/svg" viewBox="-0.5 -0.5 24 24" height="24" width="24"><title>food-drink-coffee-cup</title><g><path d="M18.623 7.669H4.384V5.477H3.285v3.285H4.384v6.569h1.093v4.384h1.1v-1.093h9.854v1.093h1.093v-4.384h1.1v-6.569h1.093V5.477h-1.093Zm-2.192 9.854H6.577v-1.093h9.854Zm0 -3.285h-1.093v1.093h-1.1v-1.093h-1.093v1.093h-1.1v-1.093h-1.093v1.093h-1.093v-1.093h-1.1v1.093h-1.093v-1.093H6.577v-1.093h1.093v1.093h1.093v-1.093h1.1v1.093h1.093v-1.093h1.093v1.093h1.1v-1.093h1.093v1.093h1.1v-1.093h1.093Zm1.093 -2.192H5.477v-1.093h12.046Zm0 -2.185H5.477v-1.1h12.046Z" fill="currentColor" stroke-width="1"></path><path d="M14.238 0h3.285v1.093h-3.285Z" fill="currentColor" stroke-width="1"></path><path d="m15.338 21.907 -7.669 0 0 -2.192 -1.093 0 0 3.285 9.854 0 0 -3.285 -1.093 0 0 2.192z" fill="currentColor" stroke-width="1"></path><path d="M13.146 1.093h1.093v1.1h-1.093Z" fill="currentColor" stroke-width="1"></path><path d="M5.477 2.192h7.669v1.093H5.477Z" fill="currentColor" stroke-width="1"></path><path d="m18.623 5.477 0 -4.384 -1.1 0 0 3.292 -12.046 0 0 -1.1 -1.093 0 0 2.192 14.238 0z" fill="currentColor" stroke-width="1"></path></g></svg>