<svg xmlns="http://www.w3.org/2000/svg" viewBox="-0.5 -0.5 24 24" height="24" width="24"><title>interface-essential-share-2</title><g><path d="m21.907 3.285 -1.1 0 0 1.1 -1.093 0 0 -1.1 -1.093 0 0 -1.093 1.093 0 0 -1.1 -1.093 0 0 -1.093 -1.1 0 0 4.384 -3.285 0 0 1.093 3.285 0 0 4.377 1.1 0 0 -1.093 1.093 0 0 -1.093 1.093 0 0 -1.1 1.1 0 0 -1.093 1.093 0 0 -1.093 -1.093 0 0 -1.1z" fill="currentColor" stroke-width="1"></path><path d="M19.715 12.046h1.093v8.762h-1.093Z" fill="currentColor" stroke-width="1"></path><path d="M19.715 2.192h1.093v1.093h-1.093Z" fill="currentColor" stroke-width="1"></path><path d="M18.623 20.808h1.093v1.1h-1.093Z" fill="currentColor" stroke-width="1"></path><path d="M2.192 21.907h16.431V23H2.192Z" fill="currentColor" stroke-width="1"></path><path d="M12.046 5.477h2.192v1.093h-2.192Z" fill="currentColor" stroke-width="1"></path><path d="M10.954 6.569h1.093v1.1h-1.093Z" fill="currentColor" stroke-width="1"></path><path d="M9.854 7.669h1.1v5.477h-1.1Z" fill="currentColor" stroke-width="1"></path><path d="M2.192 2.192h10.954v1.093H2.192Z" fill="currentColor" stroke-width="1"></path><path d="M1.093 20.808h1.1v1.1H1.093Z" fill="currentColor" stroke-width="1"></path><path d="M1.093 3.285h1.1V4.384H1.093Z" fill="currentColor" stroke-width="1"></path><path d="M0 4.384h1.093v16.423H0Z" fill="currentColor" stroke-width="1"></path></g></svg>