<svg xmlns="http://www.w3.org/2000/svg" viewBox="-0.5 -0.5 24 24" height="24" width="24"><title>interface-essential-view-eye</title><g><path d="M21.354 10.404h1.1v2.192h-1.1Z" fill="currentColor" stroke-width="1"></path><path d="M20.262 12.596h1.093v1.093h-1.093Z" fill="currentColor" stroke-width="1"></path><path d="M20.262 9.311h1.093v1.093h-1.093Z" fill="currentColor" stroke-width="1"></path><path d="M19.169 13.689h1.093v1.1h-1.093Z" fill="currentColor" stroke-width="1"></path><path d="M19.169 8.212h1.093v1.1h-1.093Z" fill="currentColor" stroke-width="1"></path><path d="M16.977 14.788h2.192v1.093h-2.192Z" fill="currentColor" stroke-width="1"></path><path d="M16.977 7.119h2.192v1.093h-2.192Z" fill="currentColor" stroke-width="1"></path><path d="M14.785 15.881h2.192v1.093h-2.192Z" fill="currentColor" stroke-width="1"></path><path d="M14.785 9.311h1.093v4.377h-1.093Z" fill="currentColor" stroke-width="1"></path><path d="M14.785 6.027h2.192v1.093h-2.192Z" fill="currentColor" stroke-width="1"></path><path d="M13.692 13.689h1.093v1.1h-1.093Z" fill="currentColor" stroke-width="1"></path><path d="M13.692 8.212h1.093v1.1h-1.093Z" fill="currentColor" stroke-width="1"></path><path d="M8.215 16.973h6.569v1.1h-6.569Z" fill="currentColor" stroke-width="1"></path><path d="M9.308 14.788h4.384v1.093h-4.384Z" fill="currentColor" stroke-width="1"></path><path d="m12.592 9.311 -2.185 0 0 1.093 -1.1 0 0 2.192 1.1 0 0 1.093 2.185 0 0 -1.093 1.1 0 0 -2.192 -1.1 0 0 -1.093z" fill="currentColor" stroke-width="1"></path><path d="M9.308 7.119h4.384v1.093h-4.384Z" fill="currentColor" stroke-width="1"></path><path d="M8.215 4.927h6.569v1.1h-6.569Z" fill="currentColor" stroke-width="1"></path><path d="M8.215 13.689h1.093v1.1h-1.093Z" fill="currentColor" stroke-width="1"></path><path d="M8.215 8.212h1.093v1.1h-1.093Z" fill="currentColor" stroke-width="1"></path><path d="M6.023 15.881h2.192v1.093H6.023Z" fill="currentColor" stroke-width="1"></path><path d="M7.116 9.311h1.1v4.377H7.116Z" fill="currentColor" stroke-width="1"></path><path d="M6.023 6.027h2.192v1.093H6.023Z" fill="currentColor" stroke-width="1"></path><path d="M3.831 14.788h2.192v1.093H3.831Z" fill="currentColor" stroke-width="1"></path><path d="M3.831 7.119h2.192v1.093H3.831Z" fill="currentColor" stroke-width="1"></path><path d="M2.738 13.689h1.093v1.1H2.738Z" fill="currentColor" stroke-width="1"></path><path d="M2.738 8.212h1.093v1.1H2.738Z" fill="currentColor" stroke-width="1"></path><path d="M1.646 12.596h1.093v1.093H1.646Z" fill="currentColor" stroke-width="1"></path><path d="M1.646 9.311h1.093v1.093H1.646Z" fill="currentColor" stroke-width="1"></path><path d="M0.546 10.404h1.1v2.192H0.546Z" fill="currentColor" stroke-width="1"></path></g></svg>