<?xml version="1.0" encoding="utf-8"?>
<!-- Generator: Adobe Illustrator 24.0.1, SVG Export Plug-In . SVG Version: 6.00 Build 0)  -->
<svg version="1.1" id="Layer_1" xmlns="http://www.w3.org/2000/svg" xmlns:xlink="http://www.w3.org/1999/xlink" x="0px" y="0px"
	 viewBox="0 0 476.66 460.9" style="enable-background:new 0 0 476.66 460.9;" xml:space="preserve">
<style type="text/css">
	.st0{fill:#FFFFFF;}
	.st1{fill:#0808D3;}
</style>
<path class="st0" d="M305.58,385.04c0-14.68,0-29.35,0-46.05c15.18-1.57,28.32-2.92,47.33-4.88c0-26.43,3.52-53.89-1.88-79.46
	c-1.94-9.18-25.38-13.83-45.43-23.71c0-21.88,0-51.17,0-80.45c28.39,0,56.78,0,87.46,0c0,78.2,0,153.99,0,234.55
	C364.03,385.04,334.8,385.04,305.58,385.04z"/>
<path class="st0" d="M78.9,150.5c32.38,0,64.76,0,97.13,0c0.01,78.18,0.01,156.36,0.02,234.55c-32.39,0-64.78,0-97.18,0
	c0-14.62,0-29.23,0-43.34c51.66-12.02,49.92-11.96,47.76-77.24c-1.2-36.15-28.65-18.8-47.74-28.43
	C78.9,208.84,78.9,179.67,78.9,150.5z"/>
<path class="st1" d="M306.61,151.44c0-12.35,0-24.69,0-39.33c31.49,0,60.56,0,92.12,0c1.89,11.66,3.79,23.46,6.04,37.36
	c10.8,1.02,21.79,2.07,35.5,3.36c0,76.12,0,151.71,0,229.27c-11.54,1.37-22.49,2.68-35.68,4.25c-1.43,13.65-2.93,27.86-4.63,44.09
	c-30.15,0-59.22,0-93.3,0c0-15.67,0-31.04,0-46.41l-1.08,1.01c29.23,0,58.45,0,87.49,0c0-80.56,0-156.35,0-234.55
	c-30.68,0-59.07,0-87.46,0L306.61,151.44z"/>
<path class="st1" d="M306.65,384.04c-14.54,0-29.09,0-45.9,0c0-78.38,0-153.91,0-232.6c16.82,0,31.34,0,45.85,0
	c0,0-1.01-0.94-1.01-0.94c0,29.29,0,58.57,0,80.45c20.05,9.88,43.49,14.52,45.43,23.71c5.4,25.57,1.88,53.03,1.88,79.46
	c-19.01,1.96-32.14,3.31-47.33,4.88c0,16.7,0,31.37,0,46.05L306.65,384.04z"/>
<path class="st1" d="M79.86,383.96c-14.64,0-29.28,0-46.23,0c0-77.25,0-152.15,0-232.46c15.47,0,30.84,0,46.22,0l-0.94-1.01
	c0,29.17,0,58.34,0,85.54c19.09,9.64,46.55-7.71,47.74,28.43c2.16,65.28,3.9,65.22-47.76,77.24c0,14.1,0,28.72,0,43.34L79.86,383.96
	z"/>
<path class="st1" d="M175.09,151.51c12.37,0,24.73,0,39.38,0c0,77.51,0,152.52,0,232.46c-13.17,0-26.28,0-39.4,0l0.98,1.08
	c-0.01-78.18-0.01-156.36-0.02-234.55L175.09,151.51z"/>
<path class="st1" d="M175.07,383.96c0,14.48,0,28.96,0,46.05c-31.47,0-61.09,0-95.21,0c0-15.59,0-30.82,0-46.05
	c0,0-0.98,1.08-0.98,1.08c32.39,0,64.78,0,97.18,0L175.07,383.96z"/>
<path class="st1" d="M400.65,16c0,15.03,0,27.3,0,42.51c-30.33,0-60.31,0-92.44,0c0-13.9,0-26.98,0-42.51
	C338.23,16,367.33,16,400.65,16z"/>
<path class="st1" d="M81.39,58.99c0-14.44,0-27.43,0-42.92c30.55,0,60.27,0,92.07,0c0,14.51,0,27.49,0,42.92
	C142.91,58.99,113.16,58.99,81.39,58.99z"/>
<path class="st1" d="M79.84,151.51c0-12.38,0-24.76,0-39.42c31.62,0,60.78,0,95.25,0c0,13.23,0,26.32,0,39.42
	c0,0,0.94-1.01,0.94-1.01c-32.38,0-64.76,0-97.13,0L79.84,151.51z"/>
</svg>
