<svg xmlns="http://www.w3.org/2000/svg" viewBox="-0.5 -0.5 24 24" height="24" width="24"><title>food-drink-hamburger</title><g><path d="m21.9 13.692 -1.093 0 0 -1.1 -1.1 0 0 1.1 -1.093 0 0 1.093 -2.192 0 0 -1.093 -1.093 0 0 -1.1 -3.285 0 0 1.1 -2.192 0 0 1.093 -3.285 0 0 -1.093 -1.1 0 0 -1.1 -3.285 0 0 1.1 -1.093 0 0 1.093 1.093 0 0 3.285 1.1 0 0 -2.192 16.423 0 0 2.192 1.1 0 0 -2.192 1.093 0 0 -1.093 1.1 0L23 11.5l-1.1 0 0 2.192z" fill="currentColor" stroke-width="1"></path><path d="M18.616 18.069h1.093v1.1H18.616Z" fill="currentColor" stroke-width="1"></path><path d="M18.616 6.023h1.093V7.116H18.616Z" fill="currentColor" stroke-width="1"></path><path d="M17.523 4.931h1.093v1.093h-1.093Z" fill="currentColor" stroke-width="1"></path><path d="M4.377 19.169H18.616v1.093H4.377Z" fill="currentColor" stroke-width="1"></path><path d="M15.331 6.023h1.093V7.116h-1.093Z" fill="currentColor" stroke-width="1"></path><path d="M15.331 3.831h2.192v1.1h-2.192Z" fill="currentColor" stroke-width="1"></path><path d="M13.139 7.116h1.1v1.1h-1.1Z" fill="currentColor" stroke-width="1"></path><path d="M13.139 4.931h1.1v1.093h-1.1Z" fill="currentColor" stroke-width="1"></path><path d="M10.947 6.023h1.1V7.116h-1.1Z" fill="currentColor" stroke-width="1"></path><path d="M8.762 7.116h1.093v1.1h-1.093Z" fill="currentColor" stroke-width="1"></path><path d="M8.762 4.931h1.093v1.093h-1.093Z" fill="currentColor" stroke-width="1"></path><path d="M7.662 2.738h7.669v1.093H7.662Z" fill="currentColor" stroke-width="1"></path><path d="M6.569 6.023h1.093V7.116H6.569Z" fill="currentColor" stroke-width="1"></path><path d="M5.47 3.831h2.192v1.1H5.47Z" fill="currentColor" stroke-width="1"></path><path d="M4.377 4.931h1.093v1.093H4.377Z" fill="currentColor" stroke-width="1"></path><path d="M3.285 18.069h1.093v1.1H3.285Z" fill="currentColor" stroke-width="1"></path><path d="M3.285 6.023h1.093V7.116H3.285Z" fill="currentColor" stroke-width="1"></path><path d="m21.9 11.5 0 -1.1 -1.093 0 0 -3.285 -1.1 0 0 3.285 -16.423 0 0 -3.285 -1.1 0 0 3.285 -1.093 0 0 1.1 20.808 0z" fill="currentColor" stroke-width="1"></path><path d="M0 11.5h1.093v2.192H0Z" fill="currentColor" stroke-width="1"></path></g></svg>