<svg xmlns="http://www.w3.org/2000/svg" viewBox="-0.5 -0.5 24 24" height="24" width="24"><title>multiple-user</title><g><path d="M21.907 13.142H23v1.1h-1.093Z" fill="currentColor" stroke-width="1"></path><path d="M19.715 12.05h2.192v1.093h-2.192Z" fill="currentColor" stroke-width="1"></path><path d="M19.715 9.858h1.093v1.1h-1.093Z" fill="currentColor" stroke-width="1"></path><path d="m16.431 10.957 0 -2.192 -1.093 0 0 -1.1 -1.1 0 0 -2.185 1.1 0 0 -1.1 4.377 0 0 1.1 1.093 0 0 4.377 1.1 0 0 -6.569 -1.1 0 0 -1.1 -1.093 0 0 -1.093 -4.377 0 0 1.093 -1.1 0 0 1.1 -1.093 0 0 3.285 -3.285 0 0 -3.285 -1.1 0 0 -1.1 -1.093 0 0 -1.093 -4.384 0 0 1.093 -1.093 0 0 1.1 -1.093 0 0 6.569 1.093 0 0 -4.377 1.093 0 0 -1.1 4.384 0 0 1.1 1.093 0 0 2.185 -1.093 0 0 1.1 -1.093 0 0 2.192 -3.292 0 0 1.093 3.292 0 0 4.377 1.093 0 0 -5.47 1.093 0 0 -1.1 5.477 0 0 1.1 1.1 0 0 5.47 1.093 0 0 -4.377 3.285 0 0 -1.093 -3.285 0z" fill="currentColor" stroke-width="1"></path><path d="M17.523 20.811h1.1v1.093h-1.1Z" fill="currentColor" stroke-width="1"></path><path d="M16.431 19.719h1.093v1.093h-1.093Z" fill="currentColor" stroke-width="1"></path><path d="M14.238 18.619h2.192v1.1h-2.192Z" fill="currentColor" stroke-width="1"></path><path d="M14.238 16.427h1.1v1.1h-1.1Z" fill="currentColor" stroke-width="1"></path><path d="M13.146 12.05h1.093v2.192h-1.093Z" fill="currentColor" stroke-width="1"></path><path d="M8.762 17.527h5.477v1.093h-5.477Z" fill="currentColor" stroke-width="1"></path><path d="M9.861 15.335h3.285v1.093h-3.285Z" fill="currentColor" stroke-width="1"></path><path d="M8.762 12.05h1.1v2.192h-1.1Z" fill="currentColor" stroke-width="1"></path><path d="M7.669 16.427h1.093v1.1h-1.093Z" fill="currentColor" stroke-width="1"></path><path d="M6.577 18.619h2.185v1.1H6.577Z" fill="currentColor" stroke-width="1"></path><path d="M5.477 19.719h1.1v1.093H5.477Z" fill="currentColor" stroke-width="1"></path><path d="M4.384 20.811h1.093v1.093H4.384Z" fill="currentColor" stroke-width="1"></path><path d="M2.192 9.858h1.093v1.1H2.192Z" fill="currentColor" stroke-width="1"></path><path d="M1.1 12.05h2.185v1.093H1.1Z" fill="currentColor" stroke-width="1"></path><path d="M0 13.142h1.1v1.1H0Z" fill="currentColor" stroke-width="1"></path></g></svg>