<svg xmlns="http://www.w3.org/2000/svg" viewBox="-0.5 -0.5 24 24" height="24" width="24"><title>interface-essential-home-2</title><g><path d="m0.55 12.046 2.185 0 0 -1.093 1.1 0 0 -1.1 1.093 0 0 -1.093 1.1 0 0 -1.093 1.093 0 0 -1.1 1.093 0 0 -1.093 1.1 0 0 -1.1 1.093 0 0 -1.093 2.192 0 0 1.093 1.093 0 0 1.1 1.1 0 0 1.093 1.093 0 0 1.1 1.093 0 0 1.093 1.1 0 0 1.093 1.093 0 0 1.1 1.093 0 0 1.093 2.192 0 0 -2.192 -1.093 0 0 -1.093 -1.1 0 0 -1.093 -1.093 0 0 -1.1 -1.093 0 0 -1.093 -1.1 0 0 -1.1 -1.093 0 0 -1.093 -1.093 0 0 -1.093 -1.1 0 0 -1.1 -1.093 0 0 -1.093 -2.192 0 0 1.093 -1.093 0 0 1.1 -1.1 0 0 1.093 -1.093 0 0 1.093 -1.093 0 0 1.1 -1.1 0 0 1.093 -1.093 0 0 1.1 -1.1 0 0 1.093 -1.093 0 0 1.093 -1.093 0 0 2.192z" fill="currentColor" stroke-width="1"></path><path d="m19.165 21.907 -4.377 0 0 -5.477 -1.1 0 0 6.569 6.569 0 0 -9.861 -1.093 0 0 8.769z" fill="currentColor" stroke-width="1"></path><path d="M18.073 12.046h1.093v1.093h-1.093Z" fill="currentColor" stroke-width="1"></path><path d="M16.973 10.954h1.1v1.093h-1.1Z" fill="currentColor" stroke-width="1"></path><path d="M15.881 9.854h1.093v1.1h-1.093Z" fill="currentColor" stroke-width="1"></path><path d="M14.788 8.762h1.093v1.093h-1.093Z" fill="currentColor" stroke-width="1"></path><path d="M13.689 7.669h1.1v1.093h-1.1Z" fill="currentColor" stroke-width="1"></path><path d="M12.596 15.331h1.093v1.1h-1.093Z" fill="currentColor" stroke-width="1"></path><path d="M12.596 6.569h1.093v1.1h-1.093Z" fill="currentColor" stroke-width="1"></path><path d="M10.404 14.238h2.192v1.093h-2.192Z" fill="currentColor" stroke-width="1"></path><path d="M10.404 5.477h2.192v1.093h-2.192Z" fill="currentColor" stroke-width="1"></path><path d="M9.311 15.331h1.093v1.1h-1.093Z" fill="currentColor" stroke-width="1"></path><path d="M9.311 6.569h1.093v1.1h-1.093Z" fill="currentColor" stroke-width="1"></path><path d="m9.311 16.431 -1.1 0 0 5.477 -4.377 0 0 -8.769 -1.1 0 0 9.861 6.577 0 0 -6.569z" fill="currentColor" stroke-width="1"></path><path d="M8.212 7.669h1.1v1.093h-1.1Z" fill="currentColor" stroke-width="1"></path><path d="M7.119 8.762h1.093v1.093h-1.093Z" fill="currentColor" stroke-width="1"></path><path d="M6.027 9.854h1.093v1.1h-1.093Z" fill="currentColor" stroke-width="1"></path><path d="M4.927 10.954h1.1v1.093h-1.1Z" fill="currentColor" stroke-width="1"></path><path d="M3.835 12.046h1.093v1.093h-1.093Z" fill="currentColor" stroke-width="1"></path></g></svg>