<svg xmlns="http://www.w3.org/2000/svg" viewBox="-0.5 -0.5 24 24" height="24" width="24"><title>interface-essential-key</title><g><path d="M16.977 3.285h1.093v5.477h-1.093Z" fill="currentColor" stroke-width="1"></path><path d="M15.877 18.623h1.1v1.093h-1.1Z" fill="currentColor" stroke-width="1"></path><path d="M15.877 14.238h1.1v1.093h-1.1Z" fill="currentColor" stroke-width="1"></path><path d="M15.877 8.762h1.1v1.093h-1.1Z" fill="currentColor" stroke-width="1"></path><path d="M15.877 2.192h1.1v1.093h-1.1Z" fill="currentColor" stroke-width="1"></path><path d="M14.785 9.854h1.093v1.1h-1.093Z" fill="currentColor" stroke-width="1"></path><path d="M14.785 1.093h1.093v1.1h-1.093Z" fill="currentColor" stroke-width="1"></path><path d="m12.592 19.715 0 2.192 1.1 0 0 -1.1 2.185 0 0 -1.093 -3.285 0z" fill="currentColor" stroke-width="1"></path><path d="m12.592 15.331 0 3.292 3.285 0 0 -1.1 -2.185 0 0 -1.093 2.185 0 0 -1.1 -3.285 0z" fill="currentColor" stroke-width="1"></path><path d="m14.785 12.046 0 -1.093 -2.192 0 0 3.285 3.285 0 0 -1.093 -2.185 0 0 -1.1 1.093 0z" fill="currentColor" stroke-width="1"></path><path d="m12.592 5.477 1.1 0 0 -2.192 -1.1 0 0 1.1 -1.093 0 0 -1.1 1.093 0 0 -1.093 -2.192 0 0 1.093 -1.093 0 0 2.192 1.093 0 0 1.093 2.192 0 0 -1.093z" fill="currentColor" stroke-width="1"></path><path d="M10.4 21.907h2.192V23h-2.192Z" fill="currentColor" stroke-width="1"></path><path d="m10.4 10.954 -2.185 0 0 1.093 1.093 0 0 9.861 1.093 0 0 -10.954z" fill="currentColor" stroke-width="1"></path><path d="M8.215 0h6.569v1.093h-6.569Z" fill="currentColor" stroke-width="1"></path><path d="M7.116 9.854h1.1v1.1H7.116Z" fill="currentColor" stroke-width="1"></path><path d="M7.116 1.093h1.1v1.1H7.116Z" fill="currentColor" stroke-width="1"></path><path d="M6.023 8.762H7.116v1.093H6.023Z" fill="currentColor" stroke-width="1"></path><path d="M6.023 2.192H7.116v1.093H6.023Z" fill="currentColor" stroke-width="1"></path><path d="M4.931 3.285h1.093v5.477H4.931Z" fill="currentColor" stroke-width="1"></path></g></svg>