<?xml version="1.0" encoding="utf-8"?>
<!-- Generator: Adobe Illustrator 24.1.2, SVG Export Plug-In . SVG Version: 6.00 Build 0)  -->
<svg version="1.1" id="Capa_1" xmlns="http://www.w3.org/2000/svg" xmlns:xlink="http://www.w3.org/1999/xlink" x="0px" y="0px"
	 viewBox="0 0 595.28 841.89" style="enable-background:new 0 0 595.28 841.89;" xml:space="preserve">
<g>
	<path d="M341.91,411.5c0,5.86,0,11.43,0,17.15c-2.95,0-5.72,0-8.73,0c0,5.76,0,11.37,0,17.2c-3.05,0-5.87,0-8.9,0
		c0,2.45-0.07,4.68,0.03,6.91c0.06,1.33-0.32,1.84-1.73,1.78c-2.3-0.11-4.6-0.03-7.12-0.03c0,5.72,0,11.29,0,17.1
		c-3.02,0-5.84,0-8.85,0c0,2.95,0,5.66,0,8.5c-3.02,0-5.84,0-8.85,0c0-2.7,0-5.4,0-8.36c-3,0-5.82,0-8.86,0c0-5.81,0-11.37,0-17.18
		c-3.03,0-5.84,0-8.91,0c0-2.99,0-5.75,0-8.64c-3.02,0-5.8,0-8.81,0c0-5.76,0-11.37,0-17.14c-3.01,0-5.78,0-8.8,0
		c0-5.76,0-11.37,0-17.21c-3.06,0-5.88,0-8.9,0c0-2.46-0.07-4.69,0.03-6.92c0.06-1.34-0.33-1.85-1.73-1.78
		c-2.3,0.11-4.61,0.03-7.17,0.03c0-5.75,0-11.36,0-17.13c-3.03,0-5.81,0-8.73,0c0-14.36,0-28.56,0-42.98c2.85,0,5.68,0,8.71,0
		c0-2.95,0-5.67,0-8.39c0-2.43,0.06-4.87-0.02-7.3c-0.04-1.23,0.43-1.57,1.59-1.54c2.36,0.07,4.73,0.02,7.28,0.02
		c0-2.89,0-5.6,0-8.53c3.01,0,5.84,0,8.83,0c0-2.92,0-5.64,0-8.57c5.91,0,11.66,0,17.67,0c0-2.96,0-5.72,0-8.56
		c14.86,0,29.44,0,44.29,0c0,2.77,0,5.52,0,8.47c6.01,0,11.76,0,17.68,0c0,2.92,0,5.63,0,8.56c2.99,0,5.81,0,8.83,0
		c0,2.92,0,5.62,0,8.56c3.01,0,5.84,0,8.86,0c0,5.8,0,11.36,0,17.15c3.01,0,5.83,0,8.79,0c0,14.42,0,28.61,0,43.04
		c-2.84,0-5.66,0-8.68,0c0,5.8,0,11.36,0,17.2c-2.48,0-4.77,0.1-7.05-0.03c-1.57-0.09-1.98,0.5-1.91,1.97
		c0.11,2.17,0.03,4.34,0.03,6.67C347.75,411.5,344.98,411.5,341.91,411.5z M279.96,385.68c0,2.53,0.06,4.77-0.02,7.01
		c-0.05,1.27,0.37,1.68,1.65,1.67c13.68-0.04,27.36-0.04,41.04,0c1.3,0,1.69-0.4,1.64-1.66c-0.09-2.28-0.02-4.56-0.02-7.02
		c3.05,0,5.82,0,8.69,0c0-14.36,0-28.54,0-42.91c-2.92,0-5.7,0-8.72,0c0-2.95,0-5.71,0-8.45c-14.87,0-29.49,0-44.3,0
		c0,2.85,0,5.56,0,8.52c-3.01,0-5.82,0-8.69,0c0,14.39,0,28.53,0,42.84C274.12,385.68,276.89,385.68,279.96,385.68z"/>
</g>
</svg>
