<svg xmlns="http://www.w3.org/2000/svg" viewBox="-0.5 -0.5 24 24" height="24" width="24"><title>interface-essential-lock</title><g><path d="M18.619 9.854h1.093v10.954h-1.093Z" fill="currentColor" stroke-width="1"></path><path d="M17.52 20.808h1.1v1.1h-1.1Z" fill="currentColor" stroke-width="1"></path><path d="M5.473 21.907h12.046V23H5.473Z" fill="currentColor" stroke-width="1"></path><path d="M15.335 1.093h1.093v1.1h-1.093Z" fill="currentColor" stroke-width="1"></path><path d="m13.142 14.238 -1.093 0 0 -1.093 1.093 0 0 -1.1 -3.285 0 0 1.1 -1.1 0 0 2.185 1.1 0 0 1.1 1.093 0 0 3.285 1.1 0 0 -3.285 1.093 0 0 -1.1 1.093 0 0 -2.185 -1.093 0 0 1.093z" fill="currentColor" stroke-width="1"></path><path d="M7.665 0h7.669v1.093h-7.669Z" fill="currentColor" stroke-width="1"></path><path d="M6.573 1.093h1.093v1.1h-1.093Z" fill="currentColor" stroke-width="1"></path><path d="m18.619 9.854 0 -1.093 -1.1 0 0 -6.569 -1.093 0 0 6.569 -9.854 0 0 -6.569 -1.1 0 0 6.569 -1.093 0 0 1.093 14.238 0z" fill="currentColor" stroke-width="1"></path><path d="M4.381 20.808h1.093v1.1h-1.093Z" fill="currentColor" stroke-width="1"></path><path d="M3.288 9.854h1.093v10.954h-1.093Z" fill="currentColor" stroke-width="1"></path></g></svg>