<svg xmlns="http://www.w3.org/2000/svg" viewBox="-0.5 -0.5 24 24" height="24" width="24"><title>interface-essential-map</title><g><path d="m21.9 19.712 -1.093 0 0 1.1 -5.477 0 0 -4.384 -1.093 0 0 4.384 -3.285 0 0 -1.1 -1.1 0 0 1.1 -7.662 0 0 -1.1 -1.1 0 0 1.1 -1.093 0 0 1.093 23 0 0 -1.093 -1.1 0 0 -1.1z" fill="currentColor" stroke-width="1"></path><path d="M19.715 17.527h1.093v2.185h-1.093Z" fill="currentColor" stroke-width="1"></path><path d="M18.616 15.335h1.1v2.192H18.616Z" fill="currentColor" stroke-width="1"></path><path d="m16.423 14.242 0 1.093 2.192 0 0 -2.192 -1.093 0 0 1.1 -1.1 0z" fill="currentColor" stroke-width="1"></path><path d="M15.331 15.335h1.093v1.093h-1.093Z" fill="currentColor" stroke-width="1"></path><path d="M7.662 18.619h2.192v1.093h-2.192Z" fill="currentColor" stroke-width="1"></path><path d="M8.762 15.335h1.093v1.093h-1.093Z" fill="currentColor" stroke-width="1"></path><path d="M7.662 16.427h1.1v1.1h-1.1Z" fill="currentColor" stroke-width="1"></path><path d="M4.377 17.527h3.285v1.093H4.377Z" fill="currentColor" stroke-width="1"></path><path d="M10.954 13.142v1.1h-1.1v1.093h1.1v2.192h1.093v-2.192h1.093v-1.093h-1.093v-1.1h1.093v1.1h1.1v-1.1h3.285v-1.093h-5.477V8.769h1.093v-1.1h1.1V6.573h1.093v-3.285h-1.093v-1.1h-1.1v-1.093h-3.285v1.093h-1.093v1.1h-1.1v3.285h1.1v1.093h1.093V8.769h1.1v3.285H5.477v1.093Zm0 -9.854h2.185v2.192h-1.093V4.384h-1.093Z" fill="currentColor" stroke-width="1"></path><path d="M4.377 13.142h1.1v2.192H4.377Z" fill="currentColor" stroke-width="1"></path><path d="M3.285 15.335h1.093v2.192H3.285Z" fill="currentColor" stroke-width="1"></path><path d="M2.192 17.527h1.093v2.185H2.192Z" fill="currentColor" stroke-width="1"></path></g></svg>