<?xml version="1.0" encoding="utf-8"?>
<!-- Generator: Adobe Illustrator 24.1.2, SVG Export Plug-In . SVG Version: 6.00 Build 0)  -->
<svg version="1.1" id="Capa_1" xmlns="http://www.w3.org/2000/svg" xmlns:xlink="http://www.w3.org/1999/xlink" x="0px" y="0px"
	 viewBox="0 0 595.28 841.89" style="enable-background:new 0 0 595.28 841.89;" xml:space="preserve">
<style type="text/css">
	.st0{fill:none;stroke:#0808D3;stroke-miterlimit:10;}
	.st1{fill:#0808D3;}
</style>
<g>
	<g>
		<path class="st0" d="M304.46,439.25c0-3.05,0-6.11,0-9.16c0-0.52,0-0.51,0.63-0.51c0.85,0,1.7,0.01,2.55,0
			c0.28,0,0.46,0.05,0.45,0.32c-0.02,0.24,0.15,0.32,0.41,0.31c0.19-0.01,0.38,0.01,0.57-0.01c0.34-0.02,0.56,0.05,0.54,0.37
			c-0.01,0.18,0.13,0.25,0.33,0.25c0.22,0,0.44,0.01,0.66,0c0.31-0.02,0.53,0.03,0.51,0.35c-0.01,0.2,0.13,0.28,0.35,0.28
			c0.2,0,0.41,0.01,0.61,0c0.33-0.02,0.56,0.03,0.54,0.37c-0.01,0.21,0.16,0.26,0.37,0.26c0.19,0,0.38,0.01,0.57,0
			c0.34-0.02,0.6,0.02,0.58,0.38c-0.01,0.18,0.14,0.24,0.34,0.24c0.58,0,1.16,0,1.75-0.01c0.21,0,0.34-0.08,0.32-0.26
			c-0.03-0.34,0.21-0.39,0.54-0.36c0.14,0.01,0.28,0,0.42,0c0.34,0.02,0.6-0.03,0.57-0.39c-0.02-0.18,0.14-0.24,0.34-0.24
			c0.19,0,0.38-0.01,0.57,0c0.35,0.02,0.64-0.01,0.6-0.4c-0.01-0.16,0.12-0.23,0.3-0.23c0.2,0,0.41-0.01,0.61,0
			c0.36,0.02,0.62-0.03,0.59-0.41c-0.01-0.16,0.13-0.22,0.31-0.22c0.19,0,0.38,0,0.57,0c0.36,0.02,0.67,0.01,0.64-0.41
			c-0.01-0.19,0.18-0.22,0.37-0.22c0.47,0,0.94-0.01,1.42,0c0.3,0.01,0.49-0.06,0.46-0.35c-0.02-0.22,0.14-0.29,0.39-0.28
			c0.33,0.01,0.66,0.02,0.99,0.01c0.39-0.01,0.78-0.05,0.75,0.44c-0.01,0.14,0.15,0.18,0.3,0.19c0.2,0.01,0.41,0.01,0.61,0
			c0.34-0.02,0.6,0.01,0.58,0.38c-0.01,0.18,0.14,0.24,0.34,0.25c0.17,0,0.35,0.01,0.52,0c0.36-0.02,0.67-0.01,0.65,0.4
			c-0.01,0.16,0.15,0.22,0.32,0.22c0.2,0,0.41,0.01,0.61,0c0.34-0.02,0.6,0.02,0.58,0.38c-0.01,0.21,0.19,0.24,0.39,0.25
			c0.46,0,0.91,0.01,1.37,0c0.29-0.01,0.51,0.03,0.49,0.33c-0.01,0.22,0.14,0.3,0.38,0.3c0.26,0,0.37,0.11,0.37,0.31
			c-0.01,0.24,0.16,0.32,0.42,0.31c0.17,0,0.35,0.01,0.52,0c0.33-0.02,0.6,0.01,0.58,0.38c-0.01,0.21,0.19,0.25,0.39,0.25
			c0.27,0,0.36,0.12,0.35,0.32c0,0.08,0,0.16,0,0.23c0,6.05,0,12.11,0.01,18.16c0,0.62,0,0.62-0.75,0.62c-0.57,0-1.13,0-1.7,0.01
			c-0.27,0.01-0.43-0.06-0.41-0.31c0.02-0.27-0.16-0.33-0.44-0.33c-0.47,0.01-0.94,0-1.42,0.01c-0.27,0.01-0.43-0.07-0.41-0.31
			c0.02-0.26-0.16-0.34-0.44-0.33c-0.17,0.01-0.35-0.01-0.52,0.01c-0.34,0.03-0.6-0.01-0.56-0.37c0.02-0.18-0.13-0.25-0.33-0.25
			c-0.2,0-0.41-0.01-0.61,0c-0.34,0.02-0.61,0-0.57-0.37c0.02-0.18-0.12-0.26-0.32-0.26c-0.22,0-0.44-0.01-0.66,0
			c-0.34,0.03-0.56-0.04-0.53-0.37c0.02-0.21-0.15-0.26-0.37-0.26c-0.57,0-1.13,0.01-1.7,0.01c-0.23,0-0.36,0.09-0.36,0.28
			c0.01,0.29-0.2,0.34-0.49,0.34c-0.46,0-0.91,0.01-1.37,0c-0.23,0-0.41,0.05-0.41,0.28c0.01,0.29-0.2,0.35-0.49,0.34
			c-0.2,0-0.41,0.01-0.61,0c-0.24,0-0.41,0.05-0.41,0.28c0.01,0.29-0.2,0.35-0.49,0.34c-0.19,0-0.38,0.01-0.57,0
			c-0.27-0.01-0.47,0.05-0.46,0.32c0,0.01,0,0.03,0,0.04c0,0.42-0.71,0.11-0.72,0.46c-0.01,0.39-0.27,0.42-0.65,0.42
			c-1.6-0.01-3.21,0-4.81,0c-0.25,0-0.46-0.02-0.43-0.28c0.02-0.31-0.18-0.38-0.5-0.36c-0.17,0.01-0.35,0-0.52,0.01
			c-0.32,0.03-0.53-0.03-0.5-0.34c0.02-0.23-0.15-0.29-0.39-0.29c-0.16,0-0.32-0.01-0.47,0c-0.38,0.03-0.71,0.02-0.66-0.42
			c0.02-0.14-0.12-0.2-0.28-0.2c-0.19-0.01-0.38-0.02-0.57,0c-0.38,0.03-0.71,0.04-0.66-0.41c0.02-0.14-0.12-0.2-0.28-0.21
			c-0.19,0-0.38-0.01-0.57,0c-0.37,0.02-0.72,0.04-0.67-0.41c0.02-0.14-0.12-0.21-0.28-0.21c-0.2-0.01-0.41-0.02-0.61,0
			c-0.37,0.03-0.67,0.01-0.62-0.4c0.02-0.17-0.14-0.23-0.32-0.21c-0.44,0.04-0.43-0.2-0.43-0.45c0-1.81,0-3.61,0-5.42
			C304.46,441.8,304.46,440.53,304.46,439.25z"/>
		<path class="st0" d="M314.51,450.33c-0.41-0.29-0.9-0.48-1.44-0.58c-0.42-0.31-0.93-0.52-1.49-0.62
			c-0.42-0.32-0.94-0.53-1.51-0.62c-0.42-0.32-0.94-0.53-1.51-0.62c-0.36-0.27-0.8-0.47-1.27-0.58c0-1.05,0-2.1,0-3.15
			c0,0,0-10.54,0-11.78c0.15,0.05,0.31,0.08,0.47,0.11c0.42,0.32,0.94,0.53,1.52,0.63c0.42,0.32,0.94,0.53,1.51,0.62
			c0.42,0.31,0.93,0.53,1.5,0.62c0.58,0.44,1.35,0.68,2.18,0.68c0.34,0,0.68,0,1.02,0c0.25,0,0.49,0,0.74,0
			c0.82,0,1.58-0.24,2.15-0.68c0.69-0.12,1.18-0.39,1.48-0.62c0.68-0.11,1.17-0.37,1.51-0.62c0.69-0.12,1.19-0.39,1.5-0.62
			c0.63-0.11,1.11-0.33,1.44-0.57c0.04,0,0.07,0,0.11,0c0.59,0,1.07-0.11,1.45-0.26c0.24,0.09,0.49,0.16,0.76,0.21
			c0.42,0.32,0.93,0.53,1.5,0.62c0.42,0.32,0.94,0.53,1.52,0.63c0.44,0.33,1.16,0.68,2.22,0.68c0.04,0,0.08,0,0.13,0
			c0.07,0.05,0.15,0.1,0.23,0.15c0.1,0.11,0.2,0.22,0.32,0.32c0.38,0.32,0.85,0.55,1.37,0.67l0,0.81c0,4.66,0,9.32,0,13.98
			c-0.14-0.01-0.29-0.02-0.44-0.02c-0.03,0-0.06,0-0.09,0c-0.01,0-0.02,0-0.02,0c-0.4-0.28-0.89-0.48-1.42-0.57
			c-0.42-0.32-0.94-0.53-1.51-0.62c-0.42-0.32-0.94-0.53-1.51-0.63c-0.58-0.44-1.35-0.68-2.2-0.68l-0.43,0c-0.43,0-0.85,0-1.28,0
			c-0.79,0-1.53,0.22-2.1,0.62c-0.01,0-0.12,0-0.12,0c-1.07,0-1.78,0.35-2.22,0.68c-0.71,0.12-1.21,0.4-1.51,0.62
			c-0.83,0.14-1.37,0.5-1.64,0.73c-0.11,0.09-0.21,0.19-0.29,0.29c-0.09,0.05-0.18,0.11-0.26,0.16c-0.17,0-0.34,0-0.51,0
			C315.74,450.33,315.1,450.33,314.51,450.33z"/>
	</g>
</g>
<g>
	<path class="st1" d="M324.95,428.45c0,0.83,0,1.62,0,2.43c-0.42,0-0.81,0-1.24,0c0,0.82,0,1.61,0,2.44c-0.43,0-0.83,0-1.26,0
		c0,0.35-0.01,0.66,0,0.98c0.01,0.19-0.05,0.26-0.25,0.25c-0.33-0.02-0.65,0-1.01,0c0,0.81,0,1.6,0,2.43c-0.43,0-0.83,0-1.26,0
		c0,0.42,0,0.8,0,1.21c-0.43,0-0.83,0-1.26,0c0-0.38,0-0.77,0-1.19c-0.43,0-0.83,0-1.26,0c0-0.82,0-1.61,0-2.44
		c-0.43,0-0.83,0-1.26,0c0-0.42,0-0.82,0-1.23c-0.43,0-0.82,0-1.25,0c0-0.82,0-1.61,0-2.43c-0.43,0-0.82,0-1.25,0
		c0-0.82,0-1.61,0-2.44c-0.43,0-0.83,0-1.26,0c0-0.35-0.01-0.67,0-0.98c0.01-0.19-0.05-0.26-0.25-0.25c-0.33,0.02-0.65,0-1.02,0
		c0-0.82,0-1.61,0-2.43c-0.43,0-0.82,0-1.24,0c0-2.04,0-4.05,0-6.1c0.4,0,0.81,0,1.24,0c0-0.42,0-0.8,0-1.19
		c0-0.35,0.01-0.69,0-1.04c-0.01-0.17,0.06-0.22,0.23-0.22c0.34,0.01,0.67,0,1.03,0c0-0.41,0-0.8,0-1.21c0.43,0,0.83,0,1.25,0
		c0-0.41,0-0.8,0-1.22c0.84,0,1.65,0,2.51,0c0-0.42,0-0.81,0-1.21c2.11,0,4.18,0,6.29,0c0,0.39,0,0.78,0,1.2c0.85,0,1.67,0,2.51,0
		c0,0.41,0,0.8,0,1.21c0.42,0,0.83,0,1.25,0c0,0.41,0,0.8,0,1.22c0.43,0,0.83,0,1.26,0c0,0.82,0,1.61,0,2.43c0.43,0,0.83,0,1.25,0
		c0,2.05,0,4.06,0,6.11c-0.4,0-0.8,0-1.23,0c0,0.82,0,1.61,0,2.44c-0.35,0-0.68,0.01-1,0c-0.22-0.01-0.28,0.07-0.27,0.28
		c0.02,0.31,0,0.62,0,0.95C325.78,428.45,325.39,428.45,324.95,428.45z M316.16,424.78c0,0.36,0.01,0.68,0,1
		c-0.01,0.18,0.05,0.24,0.23,0.24c1.94-0.01,3.88-0.01,5.82,0c0.18,0,0.24-0.06,0.23-0.24c-0.01-0.32,0-0.65,0-1
		c0.43,0,0.83,0,1.23,0c0-2.04,0-4.05,0-6.09c-0.41,0-0.81,0-1.24,0c0-0.42,0-0.81,0-1.2c-2.11,0-4.18,0-6.29,0c0,0.4,0,0.79,0,1.21
		c-0.43,0-0.83,0-1.23,0c0,2.04,0,4.05,0,6.08C315.33,424.78,315.73,424.78,316.16,424.78z"/>
</g>
</svg>
