<?xml version="1.0" encoding="utf-8"?>
<!-- Generator: Adobe Illustrator 24.1.2, SVG Export Plug-In . SVG Version: 6.00 Build 0)  -->
<svg version="1.1" id="Capa_1" xmlns="http://www.w3.org/2000/svg" xmlns:xlink="http://www.w3.org/1999/xlink" x="0px" y="0px"
	 viewBox="0 0 595.28 841.89" style="enable-background:new 0 0 595.28 841.89;" xml:space="preserve">
<style type="text/css">
	.st0{fill:#FFFFFF;}
	.st1{fill:#0808D3;}
</style>
<path class="st0" d="M236.55,505.66c0-9.13,0-16.48,0-24.82c8.63,0,16.46,0,25.39,0c0,8.24,0,16.02,0,24.82
	C253.59,505.66,245.76,505.66,236.55,505.66z"/>
<g>
	<path class="st1" d="M231.07,487.25c0-31.93,0-63.85,0-96.15c5.42,0,10.72,0,16.02,0l-0.07-0.08c0,26.74,0,53.47,0,80.22
		c42.98,0,85.49,0,128.25,0c0-1.24,0-2.31,0-3.38c0.02-25.61,0.03-51.23,0.05-76.84l-0.07,0.08c5.24,0,10.47,0,16.02,0
		c0,32.18,0,64.17,0,96.15l0.08-0.07c-6.67-0.03-13.34-0.09-20.01-0.09c-39.61-0.01-79.23-0.01-118.84,0
		c-7.17,0-14.34,0.06-21.51,0.09L231.07,487.25z"/>
	<path class="st1" d="M391.27,487.25c5.24,0,10.48,0,15.88,0c0,10.68,0,21.16,0,31.93c-15.88,0-31.76,0-47.85,0c0,5.43,0,10.57,0,16
		c-5.4,0-10.6,0-16,0c0,5.43,0,10.57,0,15.91c-10.74,0-21.27,0-32.01,0c0-5.16,0-10.3,0-15.74c-5.4,0-10.6,0-16,0
		c0-5.43,0-10.57,0-16c-26.77,0-53.34,0-80.07,0c0-10.76,0-21.24,0-32.1c5.26,0,10.56,0,15.86,0l-0.08-0.07c0,5.3,0,10.6,0,15.96
		c53.65,0,106.88,0,160.35,0c0-5.48,0-10.72,0-15.96L391.27,487.25z"/>
	<path class="st1" d="M263.12,375.06c0-5.24,0-10.47,0-15.99c5.38,0,10.58,0,15.97,0c0-5.42,0-10.55,0-16.06c5.48,0,10.78,0,16.08,0
		l-0.07-0.08c0,10.62,0,21.24,0,32.05c-10.79,0-21.42,0-32.05,0L263.12,375.06z"/>
	<path class="st1" d="M327.17,343.01c5.24,0,10.47,0,15.99,0c0,5.38,0,10.58,0,15.97c5.42,0,10.55,0,16.06,0c0,5.48,0,10.78,0,16.08
		l0.08-0.07c-10.7,0-21.39,0-32.05,0c0-10.93,0-21.49,0-32.05L327.17,343.01z"/>
	<path class="st1" d="M295.17,343.01c0-5.24,0-10.48,0-15.87c10.67,0,21.15,0,32,0c0,5.27,0,10.57,0,15.87c0,0,0.07-0.08,0.07-0.08
		c-10.71,0-21.42,0-32.13,0L295.17,343.01z"/>
	<path class="st1" d="M247.09,391.09c0-5.23,0-10.46,0-16.04c5.46,0,10.75,0,16.04,0c0,0-0.08-0.07-0.08-0.07c0,5.3,0,10.6,0,16.03
		c-5.55,0-10.79,0-16.03,0L247.09,391.09z"/>
	<path class="st1" d="M359.21,375.06c5.23,0,10.46,0,16.04,0c0,5.46,0,10.75,0,16.04c0,0,0.07-0.08,0.07-0.08c-5.3,0-10.6,0-16.03,0
		c0-5.55,0-10.79,0-16.03L359.21,375.06z"/>
	<path class="st0" d="M359.29,374.99c0,5.24,0,10.48,0,16.03c5.43,0,10.73,0,16.03,0c-0.02,25.61-0.03,51.23-0.05,76.84
		c0,1.07,0,2.14,0,3.38c-42.76,0-85.27,0-128.25,0c0-26.75,0-53.49,0-80.22c5.24,0,10.48,0,16.03,0c0-5.43,0-10.73,0-16.03
		c10.63,0,21.27,0,32.05,0c0-10.82,0-21.44,0-32.05c10.71,0,21.42,0,32.13,0c0,10.56,0,21.13,0,32.05
		C337.9,374.99,348.59,374.99,359.29,374.99z"/>
	<path class="st0" d="M391.35,487.18c0,5.24,0,10.48,0,15.96c-53.47,0-106.7,0-160.35,0c0-5.36,0-10.66,0-15.96
		c7.17-0.03,14.34-0.09,21.51-0.09c39.61-0.01,79.23-0.01,118.84,0C378.01,487.09,384.68,487.15,391.35,487.18z"/>
</g>
</svg>
