<?xml version="1.0" encoding="utf-8"?>
<!-- Generator: Adobe Illustrator 24.1.2, SVG Export Plug-In . SVG Version: 6.00 Build 0)  -->
<svg version="1.1" id="Capa_1" xmlns="http://www.w3.org/2000/svg" xmlns:xlink="http://www.w3.org/1999/xlink" x="0px" y="0px"
	 viewBox="0 0 595.28 841.89" style="enable-background:new 0 0 595.28 841.89;" xml:space="preserve">
<style type="text/css">
	.st0{fill:#FFFFFF;}
	.st1{fill:#0808D3;}
</style>
<path class="st0" d="M325.67,444.8c0-1.08,0-2.16,0-3.39c1.12-0.12,2.08-0.21,3.48-0.36c0-1.94,0.26-3.97-0.14-5.85
	c-0.14-0.68-1.87-1.02-3.34-1.74c0-1.61,0-3.76,0-5.92c2.09,0,4.18,0,6.44,0c0,5.75,0,11.33,0,17.26
	C329.97,444.8,327.82,444.8,325.67,444.8z"/>
<path class="st0" d="M308.99,427.54c2.38,0,4.76,0,7.15,0c0,5.75,0,11.5,0,17.26c-2.38,0-4.77,0-7.15,0c0-1.08,0-2.15,0-3.19
	c3.8-0.88,3.67-0.88,3.51-5.68c-0.09-2.66-2.11-1.38-3.51-2.09C308.99,431.83,308.99,429.69,308.99,427.54z"/>
<path class="st1" d="M325.74,427.61c0-0.91,0-1.82,0-2.89c2.32,0,4.46,0,6.78,0c0.14,0.86,0.28,1.73,0.44,2.75
	c0.79,0.08,1.6,0.15,2.61,0.25c0,5.6,0,11.16,0,16.87c-0.85,0.1-1.65,0.2-2.63,0.31c-0.11,1-0.22,2.05-0.34,3.24
	c-2.22,0-4.36,0-6.86,0c0-1.15,0-2.28,0-3.41l-0.08,0.07c2.15,0,4.3,0,6.44,0c0-5.93,0-11.5,0-17.26c-2.26,0-4.35,0-6.44,0
	L325.74,427.61z"/>
<path class="st1" d="M325.75,444.73c-1.07,0-2.14,0-3.38,0c0-5.77,0-11.32,0-17.11c1.24,0,2.31,0,3.37,0c0,0-0.07-0.07-0.07-0.07
	c0,2.15,0,4.31,0,5.92c1.48,0.73,3.2,1.07,3.34,1.74c0.4,1.88,0.14,3.9,0.14,5.85c-1.4,0.14-2.37,0.24-3.48,0.36
	c0,1.23,0,2.31,0,3.39L325.75,444.73z"/>
<path class="st1" d="M309.06,444.72c-1.08,0-2.15,0-3.4,0c0-5.68,0-11.19,0-17.1c1.14,0,2.27,0,3.4,0l-0.07-0.07
	c0,2.15,0,4.29,0,6.29c1.4,0.71,3.42-0.57,3.51,2.09c0.16,4.8,0.29,4.8-3.51,5.68c0,1.04,0,2.11,0,3.19L309.06,444.72z"/>
<path class="st1" d="M316.07,427.62c0.91,0,1.82,0,2.9,0c0,5.7,0,11.22,0,17.1c-0.97,0-1.93,0-2.9,0l0.07,0.08
	c0-5.75,0-11.5,0-17.26L316.07,427.62z"/>
<path class="st1" d="M316.06,444.72c0,1.07,0,2.13,0,3.39c-2.32,0-4.49,0-7.01,0c0-1.15,0-2.27,0-3.39c0,0-0.07,0.08-0.07,0.08
	c2.38,0,4.77,0,7.15,0L316.06,444.72z"/>
<path class="st1" d="M332.66,417.65c0,1.11,0,2.01,0,3.13c-2.23,0-4.44,0-6.8,0c0-1.02,0-1.99,0-3.13
	C328.07,417.65,330.21,417.65,332.66,417.65z"/>
<path class="st1" d="M309.17,420.81c0-1.06,0-2.02,0-3.16c2.25,0,4.43,0,6.77,0c0,1.07,0,2.02,0,3.16
	C313.7,420.81,311.51,420.81,309.17,420.81z"/>
<path class="st1" d="M309.06,427.62c0-0.91,0-1.82,0-2.9c2.33,0,4.47,0,7.01,0c0,0.97,0,1.94,0,2.9c0,0,0.07-0.07,0.07-0.07
	c-2.38,0-4.76,0-7.15,0L309.06,427.62z"/>
</svg>
