<?xml version="1.0" encoding="utf-8"?>
<!-- Generator: Adobe Illustrator 24.1.2, SVG Export Plug-In . SVG Version: 6.00 Build 0)  -->
<svg version="1.1" id="Capa_1" xmlns="http://www.w3.org/2000/svg" xmlns:xlink="http://www.w3.org/1999/xlink" x="0px" y="0px"
	 viewBox="0 0 595.28 841.89" style="enable-background:new 0 0 595.28 841.89;" xml:space="preserve">
<style type="text/css">
	.st0{fill:#FFFFFF;}
	.st1{fill:#0808D3;}
</style>
<path class="st0" d="M313.16,469.88c3.53-15.58-6.56-16.41-17.71-16.15c0-18.33,0-35.88,0-54.21c28.88,0,57.5,0,86.81,0
	c0,23.44,0,46.37,0,70.36C359.69,469.88,337.29,469.88,313.16,469.88z M332.51,437.76c7.79,0,14.14,0,20.22,0
	c0-7.09,0-13.15,0-19.53c-7.06,0-13.42,0-20.22,0C332.51,425.08,332.51,431.13,332.51,437.76z"/>
<path class="st1" d="M400.63,489.06c-35.53,0-69.64,0-104.91,0c-0.59-5.82-1.15-11.31-1.8-17.62c-5.36-0.37-10.54-0.74-17.31-1.21
	c0-23.35,0-46.63,0-71.41c-12.84,0-24.14,0-36,0c0-6.71,0-11.89,0-18.18c11.47,0,22.43,0,34.8,0c0-11.91,0-22.76,0-34.41
	c6.84-0.58,12.35-1.05,18.67-1.59c0.35-5.49,0.68-10.68,1.08-16.93c29.33,0,58.75,0,89.36,0c0.48,5.33,0.95,10.47,1.52,16.69
	c4.39,0.49,9.06,1.01,14.59,1.63C400.63,393.2,400.63,440.48,400.63,489.06z M313.16,469.88c24.14,0,46.53,0,69.11,0
	c0-23.99,0-46.93,0-70.36c-29.31,0-57.93,0-86.81,0c0,18.34,0,35.89,0,54.21C306.6,453.47,316.69,454.3,313.16,469.88z"/>
<path class="st1" d="M332.51,437.76c0-6.63,0-12.68,0-19.53c6.8,0,13.17,0,20.22,0c0,6.38,0,12.44,0,19.53
	C346.65,437.76,340.3,437.76,332.51,437.76z"/>
</svg>
