<?xml version="1.0" encoding="utf-8"?>
<!-- Generator: Adobe Illustrator 24.1.2, SVG Export Plug-In . SVG Version: 6.00 Build 0)  -->
<svg version="1.1" id="Capa_1" xmlns="http://www.w3.org/2000/svg" xmlns:xlink="http://www.w3.org/1999/xlink" x="0px" y="0px"
	 viewBox="0 0 595.28 841.89" style="enable-background:new 0 0 595.28 841.89;" xml:space="preserve">
<style type="text/css">
	.st0{fill:#FFFFFF;}
	.st1{fill:#010202;}
</style>
<path class="st0" d="M320.68,482.48c-4.68,0-8.78,0-14.33,0c0-17.26,0-34.23,0-51.89c-18.04,0-34.62,0-52.38,0
	c0,17.13,0,33.76,0,51.61c-5.45,0.26-9.79,0.46-14.94,0.71c0-22.78,0-44.82,0-67.53c27.1,0,53.86,0,81.65,0
	C320.68,437.15,320.68,459.14,320.68,482.48z"/>
<path class="st0" d="M271.45,482.2c0-6.01,0-10.85,0-16.34c5.68,0,10.84,0,16.72,0c0,5.43,0,10.55,0,16.34
	C282.67,482.2,277.52,482.2,271.45,482.2z"/>
<g>
	<path class="st1" d="M325.43,393.01c11.06,0,22.11,0,33.74,0c0,3.62,0,6.91,0,10.92c-7.24,0-14.17,0-22.11,0
		c0,18.09,0,35.52,0,53.48c-4.09,0-7.19,0-11.25,0c0-6.55,0-13.16,0-20.16c-4.1,0-7.25,0-11.44,0c0,6.37,0,12.95,0,20.12
		c-4.1,0-7.2,0-11.25,0c0-17.25,0-34.7,0-53.13c-7.48,0-14.08,0-21.06,0c0-4.14,0-7.26,0-11.21c10.77,0,21.51,0,32.24,0l-0.24-0.24
		c0,3.66,0,7.32,0,10.96c4.38,0,7.73,0,11.57,0c0-4,0-7.47,0-10.94L325.43,393.01z"/>
	<path class="st1" d="M314.31,393.02c0-3.48,0-6.97,0-10.93c-3.77-0.4-7.14-0.75-11-1.16c0-7.13,0-14.02,0-21.58
		c10.76,0,21.42,0,32.82,0c0,6.98,0,14.05,0,21.59c-3.33,0.32-6.46,0.62-10.2,0.98c-0.17,3.71-0.33,7.4-0.5,11.08l0.21-0.2
		c-3.86-0.01-7.71-0.02-11.57-0.02L314.31,393.02z"/>
</g>
</svg>
