<svg xmlns="http://www.w3.org/2000/svg" viewBox="-0.5 -0.5 24 24" height="24" width="24"><title>pet-animals-cat</title><g><path d="m21.907 9.311 -1.1 0 0 3.285 -2.185 0 0 1.1 2.185 0 0 1.093 -2.185 0 0 1.093 2.185 0 0 1.1 1.1 0 0 -1.1 1.093 0 0 -1.093 -1.093 0 0 -1.093 1.093 0 0 -1.1 -1.093 0 0 -3.285z" fill="currentColor" stroke-width="1"></path><path d="M19.715 16.98h1.093v1.093h-1.093Z" fill="currentColor" stroke-width="1"></path><path d="M19.715 7.119h1.093v2.192h-1.093Z" fill="currentColor" stroke-width="1"></path><path d="M18.623 18.073h1.093v1.1h-1.093Z" fill="currentColor" stroke-width="1"></path><path d="M18.623 4.934h1.093v2.185h-1.093Z" fill="currentColor" stroke-width="1"></path><path d="M17.523 2.742h1.1v2.192h-1.1Z" fill="currentColor" stroke-width="1"></path><path d="M16.431 19.173h2.192v1.093h-2.192Z" fill="currentColor" stroke-width="1"></path><path d="M16.431 15.881h1.093v1.1h-1.093Z" fill="currentColor" stroke-width="1"></path><path d="M16.431 13.696h1.093v1.093h-1.093Z" fill="currentColor" stroke-width="1"></path><path d="M16.431 1.642h1.093v1.1h-1.093Z" fill="currentColor" stroke-width="1"></path><path d="M15.338 2.742h1.093v1.093h-1.093Z" fill="currentColor" stroke-width="1"></path><path d="M6.577 20.265h9.854v1.093H6.577Z" fill="currentColor" stroke-width="1"></path><path d="M14.238 6.027h1.1v2.192h-1.1Z" fill="currentColor" stroke-width="1"></path><path d="M14.238 3.835h1.1v1.1h-1.1Z" fill="currentColor" stroke-width="1"></path><path d="M13.146 10.404h1.093v1.1h-1.093Z" fill="currentColor" stroke-width="1"></path><path d="M12.046 15.881h1.1v1.1h-1.1Z" fill="currentColor" stroke-width="1"></path><path d="m8.762 12.596 0 1.1 1.1 0 0 1.093 2.185 0 0 -1.093 1.1 0 0 -1.1 -4.384 0z" fill="currentColor" stroke-width="1"></path><path d="M9.861 16.98h2.185v1.093h-2.185Z" fill="currentColor" stroke-width="1"></path><path d="m10.954 6.027 0 2.192 1.093 0 0 -2.192 2.192 0 0 -1.093 -5.477 0 0 1.093 2.192 0z" fill="currentColor" stroke-width="1"></path><path d="M7.669 10.404h1.093v1.1h-1.093Z" fill="currentColor" stroke-width="1"></path><path d="M7.669 6.027h1.093v2.192h-1.093Z" fill="currentColor" stroke-width="1"></path><path d="M7.669 3.835h1.093v1.1h-1.093Z" fill="currentColor" stroke-width="1"></path><path d="M6.577 2.742h1.093v1.093H6.577Z" fill="currentColor" stroke-width="1"></path><path d="M4.384 19.173h2.192v1.093H4.384Z" fill="currentColor" stroke-width="1"></path><path d="M5.477 15.881h1.1v1.1H5.477Z" fill="currentColor" stroke-width="1"></path><path d="M5.477 13.696h1.1v1.093H5.477Z" fill="currentColor" stroke-width="1"></path><path d="M5.477 1.642h1.1v1.1H5.477Z" fill="currentColor" stroke-width="1"></path><path d="M4.384 2.742h1.093v2.192H4.384Z" fill="currentColor" stroke-width="1"></path><path d="M3.285 18.073H4.384v1.1H3.285Z" fill="currentColor" stroke-width="1"></path><path d="M3.285 4.934H4.384v2.185H3.285Z" fill="currentColor" stroke-width="1"></path><path d="M2.192 16.98h1.093v1.093H2.192Z" fill="currentColor" stroke-width="1"></path><path d="m4.384 15.881 0 -1.093 -2.192 0 0 -1.093 2.192 0 0 -1.1 -2.192 0 0 -3.285 -1.093 0 0 3.285 -1.1 0 0 1.1 1.1 0 0 1.093 -1.1 0 0 1.093 1.1 0 0 1.1 1.093 0 0 -1.1 2.192 0z" fill="currentColor" stroke-width="1"></path><path d="M2.192 7.119h1.093v2.192H2.192Z" fill="currentColor" stroke-width="1"></path></g></svg>