<svg xmlns="http://www.w3.org/2000/svg" viewBox="-0.5 -0.5 24 24" height="24" width="24"><title>map-navigation-pin-location-1</title><g><path d="M18.619 5.47h1.093v5.477h-1.093Z" fill="currentColor" stroke-width="1"></path><path d="M17.527 10.947h1.093v3.285h-1.093Z" fill="currentColor" stroke-width="1"></path><path d="M17.527 3.285h1.093v2.185h-1.093Z" fill="currentColor" stroke-width="1"></path><path d="M16.427 14.231h1.1v2.192h-1.1Z" fill="currentColor" stroke-width="1"></path><path d="M16.427 2.185h1.1v1.1h-1.1Z" fill="currentColor" stroke-width="1"></path><path d="M15.335 16.423h1.093v2.192h-1.093Z" fill="currentColor" stroke-width="1"></path><path d="m15.335 8.762 -1.093 0 0 -2.192 -1.1 0 0 -1.1 -1.093 0 0 -1.093 1.093 0 0 -1.093 -3.285 0 0 1.093 -1.093 0 0 1.093 -1.1 0 0 1.1 -1.093 0 0 3.285 1.093 0 0 1.093 1.1 0 0 1.1 1.093 0 0 1.093 3.285 0 0 -1.093 1.1 0 0 -1.1 1.093 0 0 -1.093 1.093 0 0 -3.285 -1.093 0 0 2.192z" fill="currentColor" stroke-width="1"></path><path d="M14.242 18.616h1.093v1.093h-1.093Z" fill="currentColor" stroke-width="1"></path><path d="M14.242 5.47h1.093v1.1h-1.093Z" fill="currentColor" stroke-width="1"></path><path d="M14.242 1.093h2.185v1.093h-2.185Z" fill="currentColor" stroke-width="1"></path><path d="M13.142 19.708h1.1v1.1h-1.1Z" fill="currentColor" stroke-width="1"></path><path d="M13.142 4.377h1.1v1.093h-1.1Z" fill="currentColor" stroke-width="1"></path><path d="M12.05 20.808h1.093v1.093h-1.093Z" fill="currentColor" stroke-width="1"></path><path d="M10.95 21.9h1.1V23h-1.1Z" fill="currentColor" stroke-width="1"></path><path d="M9.858 20.808h1.093v1.093h-1.093Z" fill="currentColor" stroke-width="1"></path><path d="M8.765 0h5.477v1.093h-5.477Z" fill="currentColor" stroke-width="1"></path><path d="M8.765 19.708h1.093v1.1h-1.093Z" fill="currentColor" stroke-width="1"></path><path d="M7.665 18.616h1.1v1.093h-1.1Z" fill="currentColor" stroke-width="1"></path><path d="M6.573 1.093h2.192v1.093h-2.192Z" fill="currentColor" stroke-width="1"></path><path d="M6.573 16.423h1.093v2.192h-1.093Z" fill="currentColor" stroke-width="1"></path><path d="M5.473 14.231h1.1v2.192h-1.1Z" fill="currentColor" stroke-width="1"></path><path d="M5.473 2.185h1.1v1.1h-1.1Z" fill="currentColor" stroke-width="1"></path><path d="M4.381 10.947h1.093v3.285h-1.093Z" fill="currentColor" stroke-width="1"></path><path d="M4.381 3.285h1.093v2.185h-1.093Z" fill="currentColor" stroke-width="1"></path><path d="M3.288 5.47h1.093v5.477h-1.093Z" fill="currentColor" stroke-width="1"></path></g></svg>