<svg xmlns="http://www.w3.org/2000/svg" viewBox="-0.5 -0.5 24 24" height="24" width="24"><title>transportation-plane</title><g><path d="m19.715 3.285 0 1.1 2.185 0 0 5.477 -3.285 0 0 1.093 -4.377 0 0 1.093 -4.384 0 0 1.1 -3.285 0 0 1.093 -5.477 0 0 1.1 1.1 0 0 1.093 9.854 0 0 -1.093 -1.093 0 0 -1.1 2.185 0 0 -1.093 3.292 0 0 1.093 1.093 0 0 1.1 1.093 0 0 -2.192 2.192 0 0 -1.1 1.093 0 0 -1.093 1.1 0 0 -7.669 -3.285 0z" fill="currentColor" stroke-width="1"></path><path d="M20.808 17.523h1.093v2.192h-1.093Z" fill="currentColor" stroke-width="1"></path><path d="M19.715 16.431h1.093v1.093h-1.093Z" fill="currentColor" stroke-width="1"></path><path d="M18.616 19.715h2.192v1.093H18.616Z" fill="currentColor" stroke-width="1"></path><path d="M18.616 15.338h1.1v1.093H18.616Z" fill="currentColor" stroke-width="1"></path><path d="M18.616 4.384h1.1v2.185H18.616Z" fill="currentColor" stroke-width="1"></path><path d="M16.431 18.623h2.185v1.093h-2.185Z" fill="currentColor" stroke-width="1"></path><path d="M17.523 6.569h1.093v1.1h-1.093Z" fill="currentColor" stroke-width="1"></path><path d="M16.431 3.285h1.093v2.192h-1.093Z" fill="currentColor" stroke-width="1"></path><path d="M14.238 17.523h2.192v1.1h-2.192Z" fill="currentColor" stroke-width="1"></path><path d="M15.331 5.477h1.1v1.093h-1.1Z" fill="currentColor" stroke-width="1"></path><path d="M14.238 2.192h2.192v1.093h-2.192Z" fill="currentColor" stroke-width="1"></path><path d="M12.046 16.431h2.192v1.093h-2.192Z" fill="currentColor" stroke-width="1"></path><path d="M12.046 3.285h2.192V4.384h-2.192Z" fill="currentColor" stroke-width="1"></path><path d="M12.046 9.861h1.093v1.093h-1.093Z" fill="currentColor" stroke-width="1"></path><path d="M10.954 4.384h1.093v1.093h-1.093Z" fill="currentColor" stroke-width="1"></path><path d="M9.854 9.861h1.1v1.093h-1.1Z" fill="currentColor" stroke-width="1"></path><path d="M9.854 5.477h1.1v1.093h-1.1Z" fill="currentColor" stroke-width="1"></path><path d="M7.662 9.861h1.1v1.093h-1.1Z" fill="currentColor" stroke-width="1"></path><path d="M4.377 9.861h1.1v2.185H4.377Z" fill="currentColor" stroke-width="1"></path><path d="m4.377 8.762 13.146 0 0 -1.093 -2.192 0 0 -1.1 -1.093 0 0 1.1 -4.384 0 0 -1.1 -1.093 0 0 1.1 -5.477 0 0 1.093 -1.093 0 0 1.1 2.185 0 0 -1.1z" fill="currentColor" stroke-width="1"></path><path d="m4.377 13.146 0 -1.1 -3.285 0 0 -1.093 -1.093 0 0 3.285 1.093 0 0 -1.093 3.285 0z" fill="currentColor" stroke-width="1"></path><path d="M1.093 9.861h1.1v1.093H1.093Z" fill="currentColor" stroke-width="1"></path></g></svg>