<svg xmlns="http://www.w3.org/2000/svg" viewBox="-0.5 -0.5 24 24" height="24" width="24"><title>interface-essential-profile-male</title><g><path d="M21.9 8.762H23v5.477h-1.1Z" fill="currentColor" stroke-width="1"></path><path d="M20.808 14.238h1.093v2.192h-1.093Z" fill="currentColor" stroke-width="1"></path><path d="M20.808 6.569h1.093v2.192h-1.093Z" fill="currentColor" stroke-width="1"></path><path d="M19.715 16.431h1.093v2.185h-1.093Z" fill="currentColor" stroke-width="1"></path><path d="M19.715 4.384h1.093v2.185h-1.093Z" fill="currentColor" stroke-width="1"></path><path d="M18.616 18.616h1.1v1.1H18.616Z" fill="currentColor" stroke-width="1"></path><path d="M18.616 3.285h1.1V4.384H18.616Z" fill="currentColor" stroke-width="1"></path><path d="M16.423 19.715h2.192v1.093h-2.192Z" fill="currentColor" stroke-width="1"></path><path d="M16.423 2.192h2.192v1.093h-2.192Z" fill="currentColor" stroke-width="1"></path><path d="M15.331 15.331h1.093v1.1h-1.093Z" fill="currentColor" stroke-width="1"></path><path d="m6.569 10.954 1.093 0 0 -1.1 7.669 0 0 1.1 1.093 0 0 4.377 1.1 0 0 -8.762 -1.1 0 0 -1.093 -1.093 0 0 -1.093 -7.669 0 0 1.093 -1.093 0 0 1.093 -1.093 0 0 8.762 1.093 0 0 -4.377z" fill="currentColor" stroke-width="1"></path><path d="M14.238 20.808h2.185v1.1h-2.185Z" fill="currentColor" stroke-width="1"></path><path d="M14.238 16.431h1.093v1.093h-1.093Z" fill="currentColor" stroke-width="1"></path><path d="M14.238 12.046h1.093v2.192h-1.093Z" fill="currentColor" stroke-width="1"></path><path d="M14.238 1.093h2.185v1.1h-2.185Z" fill="currentColor" stroke-width="1"></path><path d="M8.762 21.907h5.477V23h-5.477Z" fill="currentColor" stroke-width="1"></path><path d="M8.762 17.523h5.477v1.093h-5.477Z" fill="currentColor" stroke-width="1"></path><path d="M9.854 15.331h3.285v1.1h-3.285Z" fill="currentColor" stroke-width="1"></path><path d="M8.762 0h5.477v1.093h-5.477Z" fill="currentColor" stroke-width="1"></path><path d="M6.569 20.808h2.192v1.1H6.569Z" fill="currentColor" stroke-width="1"></path><path d="M7.662 16.431h1.1v1.093h-1.1Z" fill="currentColor" stroke-width="1"></path><path d="M7.662 12.046h1.1v2.192h-1.1Z" fill="currentColor" stroke-width="1"></path><path d="M6.569 1.093h2.192v1.1H6.569Z" fill="currentColor" stroke-width="1"></path><path d="M6.569 15.331h1.093v1.1H6.569Z" fill="currentColor" stroke-width="1"></path><path d="M4.377 19.715h2.192v1.093H4.377Z" fill="currentColor" stroke-width="1"></path><path d="M4.377 2.192h2.192v1.093H4.377Z" fill="currentColor" stroke-width="1"></path><path d="M3.285 18.616h1.093v1.1H3.285Z" fill="currentColor" stroke-width="1"></path><path d="M3.285 3.285h1.093V4.384H3.285Z" fill="currentColor" stroke-width="1"></path><path d="M2.192 16.431h1.093v2.185H2.192Z" fill="currentColor" stroke-width="1"></path><path d="M2.192 4.384h1.093v2.185H2.192Z" fill="currentColor" stroke-width="1"></path><path d="M1.093 14.238h1.1v2.192H1.093Z" fill="currentColor" stroke-width="1"></path><path d="M1.093 6.569h1.1v2.192H1.093Z" fill="currentColor" stroke-width="1"></path><path d="M0 8.762h1.093v5.477H0Z" fill="currentColor" stroke-width="1"></path></g></svg>