<?xml version="1.0" encoding="utf-8"?>
<!-- Generator: Adobe Illustrator 24.1.2, SVG Export Plug-In . SVG Version: 6.00 Build 0)  -->
<svg version="1.1" id="Capa_1" xmlns="http://www.w3.org/2000/svg" xmlns:xlink="http://www.w3.org/1999/xlink" x="0px" y="0px"
	 viewBox="0 0 595.28 841.89" style="enable-background:new 0 0 595.28 841.89;" xml:space="preserve">
<path d="M240.66,374.6c0.29-3.98,0.6-8.1,0.91-12.23c0,0-0.09,0.07-0.09,0.07c6.5,0.12,13,0.31,19.5,0.35
	c9.51,0.06,19.03,0.02,28.54,0.02l-0.13-0.13c0,3.92,0,7.83,0,12.01"/>
<path d="M253.19,338.4c0-12.01,0-23.67,0-35.61c3.89,0,7.6,0,11.74,0c0,7.85,0,15.54,0,23.72c8.2,0,16,0,24.06,0
	c0,4.21,0,7.93,0,11.89C277.07,338.4,265.31,338.4,253.19,338.4z"/>
<path d="M289.39,290.77c-5.96-0.13-11.93-0.33-17.89-0.37c-8.57-0.06-17.14-0.05-25.71,0.01c-1.44,0.01-2.89,0.39-4.33,0.6
	l0.08,0.08c-0.23-4.03-0.47-8.05-0.72-12.4c16.31,0,32.13,0,48.45,0c0,4.13,0,8.16,0,12.2L289.39,290.77z"/>
<path d="M228.53,301.75c0.09,14.62,0.16,29.23,0.28,43.85c0.01,1.46,0.28,2.91,0.43,4.37c0,0.01,0.04-0.03,0.04-0.03
	c-3.99,0.32-7.97,0.63-12.26,0.97c0-16.41,0-32.12,0-47.99c3.91-0.37,7.75-0.73,11.6-1.08
	C228.63,301.85,228.53,301.75,228.53,301.75z"/>
<path d="M301.92,301.94c3.61,0.3,7.21,0.59,11.12,0.92c0,15.74,0,31.43,0,47.47c-3.7,0-7.4,0-11.59,0c0-3.9,0-7.67,0-11.44
	c0-10.75-0.02-21.5,0.03-32.24c0.01-1.6,0.36-3.2,0.55-4.8C302.02,301.85,301.92,301.94,301.92,301.94z"/>
<path d="M241.57,362.37c-4.03,0-8.07,0-12.29,0c0-4.17,0-8.29,0-12.43c0,0-0.04,0.03-0.03,0.03c3.67,0.4,7.34,0.8,11.36,1.25
	c0.28,3.62,0.57,7.43,0.87,11.23C241.48,362.44,241.57,362.37,241.57,362.37z"/>
<path d="M289.51,362.81c0-3.9,0-7.8,0-11.8c3.94,0,7.66,0,11.61,0c0,3.85,0,7.44,0,11.66c-4.01,0-7.88,0-11.74,0
	C289.38,362.67,289.51,362.81,289.51,362.81z"/>
<path d="M241.46,291c-0.28,3.61-0.56,7.22-0.9,11.55c-4.05-0.27-8.04-0.53-12.02-0.8c-0.01-0.01,0.09,0.09,0.08,0.08
	c0.15-3.61,0.31-7.2,0.49-11.49c4.25,0.25,8.33,0.48,12.42,0.73C241.54,291.08,241.46,291,241.46,291z"/>
<path d="M289.28,290.88c3.85,0,7.7,0,11.71,0c0.31,3.72,0.61,7.4,0.93,11.07c0.01-0.01,0.11-0.1,0.12-0.11
	c-4.08,0.23-8.16,0.46-12.64,0.71c0-4.36,0-8.08,0-11.8C289.39,290.77,289.28,290.88,289.28,290.88z"/>
</svg>
