<svg xmlns="http://www.w3.org/2000/svg" viewBox="-0.5 -0.5 24 24" height="24" width="24"><title>shopping-shipping-shop</title><g><path d="M21.9 8.762H18.616V6.569h3.285V4.384h-1.093v1.093H18.616V4.384h-1.093v1.093H14.231V3.285h-1.093v2.192h-3.285V3.285h-1.093v2.192H5.47V4.384H4.377v1.093H2.185V4.384H1.093v2.185h3.285v2.192H1.093V6.569H0v3.292h1.093v12.046H0V23h23v-1.093h-1.1V9.861H23V6.569h-1.1ZM14.231 6.569h3.292v2.192H14.231Zm-4.377 0h3.285v2.192h-3.285Zm-4.384 0h3.292v2.192H5.47Zm15.338 15.338H10.947V12.046h-1.093v9.861H4.377V12.046H3.285v9.861H2.185V9.861h18.623Z" fill="currentColor" stroke-width="1"></path><path d="M19.708 3.285h1.1V4.384h-1.1Z" fill="currentColor" stroke-width="1"></path><path d="M19.708 12.046H18.616v2.192h-2.192v-2.192h2.192v-1.093h-5.477v1.093h2.192v2.192h-2.192v-2.192h-1.093v6.577h7.662Zm-4.377 5.477h-2.192v-2.192h2.192Zm3.285 0h-2.192v-2.192h2.192Z" fill="currentColor" stroke-width="1"></path><path d="M18.616 2.192h1.093v1.093H18.616Z" fill="currentColor" stroke-width="1"></path><path d="M16.423 3.285h1.1V4.384h-1.1Z" fill="currentColor" stroke-width="1"></path><path d="M4.377 10.954h5.477v1.093H4.377Z" fill="currentColor" stroke-width="1"></path><path d="M5.47 15.331h1.1v2.192H5.47Z" fill="currentColor" stroke-width="1"></path><path d="M5.47 3.285h1.1V4.384H5.47Z" fill="currentColor" stroke-width="1"></path><path d="m6.569 3.285 1.093 0 0 -1.093 2.192 0 0 1.093 1.093 0 0 -1.093 1.1 0 0 1.093 1.093 0 0 -1.093 2.192 0 0 1.093 1.093 0 0 -1.093 2.192 0 0 -2.192L4.377 0l0 2.192 2.192 0 0 1.093z" fill="currentColor" stroke-width="1"></path><path d="M3.285 2.192h1.093v1.093H3.285Z" fill="currentColor" stroke-width="1"></path><path d="M2.185 3.285h1.1V4.384H2.185Z" fill="currentColor" stroke-width="1"></path></g></svg>