<?xml version="1.0" encoding="utf-8"?>
<!-- Generator: Adobe Illustrator 24.0.1, SVG Export Plug-In . SVG Version: 6.00 Build 0)  -->
<svg version="1.1" id="Layer_1" xmlns="http://www.w3.org/2000/svg" xmlns:xlink="http://www.w3.org/1999/xlink" x="0px" y="0px"
	 viewBox="0 0 476.66 460.9" style="enable-background:new 0 0 476.66 460.9;" xml:space="preserve">
<style type="text/css">
	.st0{fill:currentColor;}
	.st1{fill:currentColor;}
</style>
<g>
	<path class="st0" d="M69.99,69.94c-17.74,0-35.48,0-53.66,0c0,34.71,0,68.51,0,102.53c17.37,0,33.34,0,51.27,0
		c0-8.71-0.15-16.39,0.03-24.06c0.59-26.31,1.29-52.63,1.88-79.02c34.11,0.19,68.22,0.38,102.34,0.57c0,33.94,0,67.87,0,104.29
		c-16.5,0-32.93,0-50.15,0c0,88.66,0,174.84,0,261.53c105.81,0,210.47,0,314.63,0c0-87.72,0-173.95,0-262.56
		c-70.42,0-139.67,0-210.9,0c0-36.27,0-70.16,0-105.95c-19.34,1.07-36.58,2.03-53.77,2.91c0-17.67,0-35.35,0-54.1
		c-34.17,0-67.84,0-104.16,0C68.36,34.69,69.18,52.31,69.99,69.94z"/>
	<path class="st1" d="M171.6,70.24c17.24-0.95,34.48-1.91,53.82-2.98c0,35.79,0,69.69,0,105.95c71.23,0,140.48,0,210.9,0
		c0,88.61,0,174.84,0,262.56c-104.16,0-208.82,0-314.63,0c0-86.69,0-172.87,0-261.53c17.22,0,33.65,0,50.15,0
		c0-36.41,0-70.35,0.04-104.34C171.93,69.85,171.6,70.24,171.6,70.24z M173.82,382.92c3.24,1,4.91,1.96,6.58,1.97
		c64.23,0.15,128.45,0.03,192.68,0.46c11.3,0.08,12.53-5.7,12.48-14.65c-0.22-39.02-0.09-78.03-0.08-117.05c0-8.7,0-17.39,0-25.86
		c-72.42,0-141.7,0-211.65,0C173.82,280.11,173.82,330.99,173.82,382.92z"/>
	<path class="st1" d="M69.59,69.47c-0.66,26.31-1.36,52.63-1.96,78.94c-0.17,7.67-0.03,15.35-0.03,24.06c-17.94,0-33.9,0-51.27,0
		c0-34.02,0-67.83,0-102.53c18.18,0,35.92,0,53.66,0L69.59,69.47z"/>
	<path class="st1" d="M69.99,69.94c-0.82-17.62-1.63-35.25-2.49-53.87c36.32,0,69.99,0,104.16,0c0,18.76,0,36.43-0.03,54.14
		c-0.03,0.03,0.3-0.36,0.26-0.3c-34.15-0.14-68.26-0.32-102.34-0.47C69.59,69.47,69.99,69.94,69.99,69.94z"/>
	<path class="st0" d="M173.82,382.92c0-51.93,0-102.81,0-155.13c69.96,0,139.23,0,211.65,0c0,8.47,0,17.16,0,25.86
		c0,39.02-0.14,78.03,0.08,117.05c0.05,8.95-1.18,14.73-12.48,14.65c-64.22-0.43-128.45-0.31-192.68-0.46
		C178.72,384.89,177.05,383.92,173.82,382.92z"/>
</g>
</svg>
