<?xml version="1.0" encoding="utf-8"?>
<!-- Generator: Adobe Illustrator 24.1.2, SVG Export Plug-In . SVG Version: 6.00 Build 0)  -->
<svg version="1.1" id="Capa_1" xmlns="http://www.w3.org/2000/svg" xmlns:xlink="http://www.w3.org/1999/xlink" x="0px" y="0px"
	 viewBox="0 0 595.28 841.89" style="enable-background:new 0 0 595.28 841.89;" xml:space="preserve">
<style type="text/css">
	.st0{fill:#FFFFFF;}
</style>
<g>
	<path d="M228.72,410.06c0-4.74,0.43-9.53-0.09-14.21c-1.18-10.8,0.16-18.97,15.33-15.05c0-10.17,0-19.2,0-28.8
		c4.81-0.72,8.63-1.29,13.54-2.03c0-4.69,0.43-9.43-0.09-14.07c-1.19-10.82,0.22-18.92,14.68-15.21c0.59-4.84,1.07-8.75,1.64-13.41
		c9.47,0,18.88,0,29.83,0c0,8.98,0,18.27,0,29.01c11.2,0,20.9,0,30.83,0c0.5,5.38,0.86,9.32,1.29,13.91
		c3.72,0.4,7.26,0.78,11.99,1.29c0,9.13,0,18.16,0,26.9c18.14,4.19,18.14,4.19,15.24,31.65
		C318.74,410.06,274.41,410.06,228.72,410.06z M332.27,382.51c-14.87,0-29.04,0-43.82,0c0.22,4.54,0.4,8.36,0.59,12.14
		c15,0,28.87,0,43.24,0C332.27,390.55,332.27,386.99,332.27,382.51z M273.41,350.27c10.33,0,20.02,0,30.16,0c0-4.34,0-8.14,0-12.23
		c-10.25,0-19.94,0-30.16,0C273.41,342.07,273.41,345.6,273.41,350.27z"/>
	<path d="M319,276.37c0,4.68,0,8.62,0,13.57c-4.48,0-8.92,0-14.13,0c0-4.34,0-8.53,0-13.57C309.33,276.37,313.51,276.37,319,276.37z
		"/>
	<path d="M333.64,307.12c4.63,0,8.86,0,13.79,0c0,4.8,0,9.02,0,14.03c-4.5,0-8.72,0-13.79,0
		C333.64,316.91,333.64,312.67,333.64,307.12z"/>
	<path d="M244.63,305.54c0-4.92,0-8.9,0-12.78c14.52-3.4,15.52-2.54,14.26,12.78C254.51,305.54,250.03,305.54,244.63,305.54z"/>
	<path class="st0" d="M332.27,382.51c0,4.48,0,8.05,0,12.14c-14.37,0-28.24,0-43.24,0c-0.18-3.78-0.37-7.59-0.59-12.14
		C303.23,382.51,317.4,382.51,332.27,382.51z"/>
	<path class="st0" d="M273.41,350.27c0-4.67,0-8.2,0-12.23c10.21,0,19.9,0,30.16,0c0,4.09,0,7.89,0,12.23
		C293.44,350.27,283.74,350.27,273.41,350.27z"/>
</g>
</svg>
