<?xml version="1.0" encoding="utf-8"?>
<!-- Generator: Adobe Illustrator 24.1.2, SVG Export Plug-In . SVG Version: 6.00 Build 0)  -->
<svg version="1.1" id="Capa_1" xmlns="http://www.w3.org/2000/svg" xmlns:xlink="http://www.w3.org/1999/xlink" x="0px" y="0px"
	 viewBox="0 0 595.28 841.89" style="enable-background:new 0 0 595.28 841.89;" xml:space="preserve">
<style type="text/css">
	.velcro0{fill:#1414D6;}
	.velcro1{fill:#0505D3;}
</style>
<g>
	<g>
		<path class="velcro0" d="M117.52,465.96l-15.16-101.05h20.66l3.61,37.42c1.24,13,2.84,27.65,3.53,40.51h0.78
			c0.64-12.85,2.28-26.7,3.37-40.37l3.16-37.57h20.3l-14.93,101.05H117.52z"/>
		<path class="velcro0" d="M205.13,421.32H184.3v27.54h24.42l-2.33,17.09h-41.55V364.91h41.4v17.18H184.3v22.15h20.83V421.32z"/>
		<path class="velcro0" d="M215.97,364.91h19.46v84.04h24.43l-1.73,17h-42.15V364.91z"/>
		<path d="M269.48,415.88v-23.93h18.42v23.93H269.48z M269.48,465.96v-23.93h18.42v23.93H269.48z"/>
		<path class="velcro1" d="M351.35,432.97v5.47c0,12.75-2.35,29.03-25.51,29.03c-17.11,0-24.54-9.12-24.54-27.69v-49.55
			c0-17.57,8.77-26.84,24.95-26.84c21.34,0,24.81,14.05,24.81,27.27v6.34h-19.57v-8.62c0-5.56-1.19-8.38-5.24-8.38
			c-4,0-5.3,2.66-5.3,8.38v53.44c0,5.39,0.9,9.07,5.29,9.07c4.2,0,5.45-3.09,5.45-9.53v-8.4H351.35z"/>
		<path class="velcro1" d="M379.08,422.03v43.93h-19.41V364.91h25.21c16.93,0,25.3,7.44,25.3,25.11v3.63c0,14.4-5.75,18.68-10.08,20.73
			c6.29,3.04,9.24,7.66,9.24,21.76c0,9.76-0.15,24.51,0.7,29.82h-18.8c-1.26-4.57-1.17-17.72-1.17-30.62
			c0-11.37-1.3-13.31-8.7-13.31H379.08z M379.13,406.71h2.41c6.49,0,9.14-2.05,9.14-11.46v-4.88c0-6.78-1.36-10.15-8.51-10.15h-3.03
			V406.71z"/>
		<path class="velcro1" d="M470.68,391.94v46.88c0,20.05-9.44,28.65-27.1,28.65c-16.76,0-25.38-8.81-25.38-28.45v-47.6
			c0-19.51,10.72-28.03,26.28-28.03C460.14,363.39,470.68,371.77,470.68,391.94z M437.85,389.75v51.65c0,6.24,2.14,9.5,6.48,9.5
			c4.53,0,6.58-2.95,6.58-9.59v-51.7c0-6.31-1.75-9.54-6.63-9.54C440.14,380.06,437.85,383.05,437.85,389.75z"/>
	</g>
</g>
</svg>
