<?xml version="1.0" encoding="utf-8"?>
<!-- Generator: Adobe Illustrator 24.1.2, SVG Export Plug-In . SVG Version: 6.00 Build 0)  -->
<svg version="1.1" id="Capa_1" xmlns="http://www.w3.org/2000/svg" xmlns:xlink="http://www.w3.org/1999/xlink" x="0px" y="0px"
	 viewBox="0 0 595.28 841.89" style="enable-background:new 0 0 595.28 841.89;" xml:space="preserve">
<style type="text/css">
	.st0{fill:#0808D3;}
</style>
<path class="st0" d="M291.17,312.65c5.37-0.45,10.28-0.85,16.08-1.33c0.7-6.42,1.4-12.74,2.28-20.77c11.62,0,22.74-0.58,33.72,0.39
	c2.86,0.25,7.3,5.14,7.58,8.21c0.94,10.53,0.36,21.2,0.36,32.92c-7.39,0.78-13.7,1.44-20.66,2.17c0,5.38,0,10.33,0,16.39
	c12.2,0,24.65,0,38.34,0c0.53-4.94,1.09-10.24,1.75-16.42c6.22,0,12.13,0,19.23,0c0,19.1,0,38.66,0,59.63
	c-6.91,0.42-14.25,0.86-22.63,1.37c-0.47,6.7-0.92,13.02-1.45,20.44c-11.85,0-22.88,0-34.94,0c0,6.42,0,11.68,0,17.99
	c5.81,0.46,11.73,0.93,19,1.51c0,13.54,0,26.87,0,41.17c-13.3,0-26.32,0-40.48,0c-0.55-5.1-1.13-10.42-1.83-16.83
	c-5.29-0.6-10.63-1.2-17.18-1.94c-0.95-6.34-1.9-12.63-2.91-19.34c-6.9-0.51-13.36-0.98-20.8-1.53c-0.7-6.72-1.36-13.04-2.15-20.67
	c-19.56,0-38.74,0-59.06,0c0-14.3,0-27.25,0-41.54c4.93-0.71,10.23-1.48,16.71-2.42c-2.32-37.71,28.9-12.04,42.91-23.34
	c0.21-3.4,0.52-8.35,0.92-14.86c7.5,0,14.86,0,23.16,0C289.88,326.1,290.49,319.74,291.17,312.65z M246.41,393.92
	c0-7.62,0-13.49,0-19.63c-7.31,0-13.88,0-19.67,0c0,7.49,0,13.69,0,19.63C233.87,393.92,239.74,393.92,246.41,393.92z
	 M326.46,394.11c0-7.51,0-13.76,0-20.17c-6.36,0-11.67,0-17.16,0c0,7.15,0,13.43,0,20.17C315.18,394.11,320.12,394.11,326.46,394.11
	z M286.09,394.16c0-7.74,0-13.98,0-20.11c-6.27,0-11.52,0-16.72,0c0,7.22,0,13.46,0,20.11
	C275.27,394.16,280.17,394.16,286.09,394.16z"/>
</svg>
