<?xml version="1.0" encoding="utf-8"?>
<!-- Generator: Adobe Illustrator 24.1.2, SVG Export Plug-In . SVG Version: 6.00 Build 0)  -->
<svg version="1.1" id="Capa_1" xmlns="http://www.w3.org/2000/svg" xmlns:xlink="http://www.w3.org/1999/xlink" x="0px" y="0px"
	 viewBox="0 0 595.28 841.89" style="enable-background:new 0 0 595.28 841.89;" xml:space="preserve">
<style type="text/css">
	.st0{fill:#FFFFFF;}
</style>
<g>
	<path class="st0" d="M295.6,389.61c-6.17,0.22-12.35,0.45-18.52,0.67c0-6.05,0-12.11,0-18.95c-6.18,0-12.13,0-18.08,0.01
		c0-5.94,0-11.88,0-18.67c-6.68,0-12.63,0-18.58,0c-0.04-18.5-0.08-37-0.12-55.5c6.14,0.06,12.28,0.12,18.41,0.18
		c0,5.91,0,11.83,0,17.84c6.86,0.31,12.62,0.57,18.4,0.81c0.36,5.87,0.73,11.74,1.1,17.82c6.07,0,11.92,0,18.52,0
		c-0.45-6.48-0.86-12.54-1.24-18.56c6.3,0,12.6,0,19.8,0c-0.38-6.43-0.74-12.48-1.09-18.53c6.89-0.01,13.79-0.03,20.68-0.04
		c-0.3,1.74-0.85,3.48-0.86,5.22c-0.07,14.93-0.04,29.86-0.02,44.79c0,1.93,0.17,3.85,0.26,5.85c6.26,0,11.98,0,17.81,0
		c0-18.58,0-36.83,0-55.72c-6.12,0-11.75,0-17.41,0.03c-0.46-6.02-0.92-12.03-1.37-18c-6.08,0-11.8,0-17.62,0
		c-0.45,6.23-0.88,12.13-1.28,18.05c-5.75,0-11.5,0-17.26,0c-0.58,6.71-1.08,12.55-1.58,18.39c-6.19,0.27-12.38,0.55-18.58,0.82
		c0.29-6.2,0.59-12.4,0.88-18.6c-7.07,0-13.17,0-19.26-0.02c0-6.26,0-12.52,0-18.53c-6.32,0-12.04,0-18.13,0c0,6.43,0,12.41,0,18.39
		c-6.09,0-12.19,0-18.23,0c0,18.7,0,36.93,0,55.16c6.4,0,12.36,0,18.32,0.01c0,6.23,0,12.47,0,18.64c6.78,0,12.71,0,18.65,0
		c0,6.21,0,12.42,0,18.99c6.57,0,12.32,0,18.08-0.02c0.29,6.06,0.57,12.13,0.86,18.12c6.26,0,12.11,0,18.61,0
		c-0.43-6.57-0.82-12.64-1.2-18.7c6.29,0,12.58,0,18.99,0c0-5.84,0-11.68,0-17.46c-6.17,0-11.87,0-17.5,0
		C296.52,378.23,296.06,383.92,295.6,389.61z"/>
	<path class="st0" d="M315.48,353.28c0,6.35,0,12.05,0,17.84c6.18,0,12.02,0,17.99,0c0-6.15,0-11.86,0-17.84
		C327.4,353.28,321.68,353.28,315.48,353.28z"/>
	<path d="M240.55,352.51c-5.96,0-11.93,0-18.33,0c0-18.23,0-36.46,0-55.16c6.04,0,12.14,0,18.23,0l-0.16-0.17
		c0.04,18.5,0.08,37,0.11,55.5C240.4,352.69,240.55,352.51,240.55,352.51z"/>
	<path d="M334.68,296.82c5.63,0,11.25,0,17.37,0c0,18.89,0,37.14,0,55.72c-5.83,0-11.55,0-17.81,0c-0.09-2-0.26-3.92-0.26-5.85
		c-0.02-14.93-0.05-29.86,0.02-44.79c0.01-1.74,0.56-3.48,0.84-5.21C334.84,296.7,334.68,296.82,334.68,296.82z"/>
	<path d="M315.48,353.28c6.2,0,11.92,0,17.99,0c0,5.97,0,11.69,0,17.84c-5.97,0-11.81,0-17.99,0
		C315.48,365.33,315.48,359.62,315.48,353.28z"/>
	<path d="M314.35,296.88c0.43-5.9,0.85-11.8,1.3-18.03c5.82,0,11.54,0,17.62,0c0.46,5.97,0.91,11.98,1.39,17.98
		c0.02-0.01,0.17-0.13,0.19-0.14c-6.88,0-13.77,0.02-20.66,0.03L314.35,296.88z"/>
	<path d="M258.57,297.51c6.1,0,12.21,0,19.27,0c-0.29,6.2-0.59,12.4-0.88,18.6l0.12-0.09c-5.76-0.26-11.51-0.52-18.37-0.83
		c0-6.01,0-11.93,0.01-17.85C258.72,297.33,258.57,297.51,258.57,297.51z"/>
	<path d="M240.45,297.35c0-5.98,0-11.96,0-18.39c6.08,0,11.81,0,18.13,0c0,6.01,0,12.27-0.01,18.54c-0.01,0.01,0.14-0.17,0.14-0.16
		c-6.15-0.05-12.28-0.11-18.42-0.16C240.29,297.18,240.45,297.35,240.45,297.35z"/>
	<path d="M259.01,371.33c5.95,0,11.89,0,18.07,0c0,6.85,0,12.9,0,18.95l0.18-0.14c-5.75,0-11.49,0-18.06,0c0-6.57,0-12.78,0-18.99
		L259.01,371.33z"/>
	<path d="M276.96,316.11c6.19-0.27,12.38-0.55,18.6-0.8c0.02,0.02-0.11-0.08-0.11-0.08c0.42,6.05,0.83,12.11,1.28,18.59
		c-6.6,0-12.45,0-18.52,0c-0.38-6.07-0.74-11.95-1.12-17.81C277.08,316.02,276.96,316.11,276.96,316.11z"/>
	<path d="M259.19,371.16c-5.94,0-11.87,0-18.65,0c0-6.17,0-12.4,0-18.64c0-0.01-0.15,0.17-0.14,0.16
		c5.96-0.01,11.91-0.01,18.59-0.01c0,6.78,0,12.72,0.01,18.66C259.01,371.33,259.19,371.16,259.19,371.16z"/>
	<path d="M277.08,390.28c6.17-0.22,12.35-0.45,18.52-0.67l-0.08-0.07c0.4,6.07,0.79,12.14,1.22,18.71c-6.5,0-12.34,0-18.61,0
		c-0.28-6-0.57-12.06-0.86-18.12C277.25,390.15,277.08,390.28,277.08,390.28z"/>
	<path d="M314.19,296.72c0.36,6.05,0.71,12.1,1.09,18.53c-7.2,0-13.5,0-19.82-0.01c-0.02-0.01,0.12,0.08,0.09,0.07
		c0.48-5.85,0.98-11.69,1.55-18.41c5.76,0,11.51,0,17.25-0.01C314.35,296.88,314.19,296.72,314.19,296.72z"/>
	<path d="M295.6,389.61c0.46-5.69,0.92-11.38,1.42-17.52c5.64,0,11.33,0,17.5,0c0,5.78,0,11.62,0,17.46c-6.4,0-12.7,0-18.99-0.01
		C295.51,389.54,295.6,389.61,295.6,389.61z"/>
</g>
</svg>
